# Blender 4.4.3
# www.blender.org
mtllib Phone.mtl
o Cube
v 1.272631 -2.850809 -0.123349
v -1.272630 -2.850809 -0.123349
v 1.272631 -2.850809 0.123349
v -1.272630 -2.850809 0.123349
v 1.272630 2.850809 -0.123349
v -1.272631 2.850809 -0.123349
v 1.272630 2.850809 0.123349
v -1.272631 2.850809 0.123349
v -1.281528 2.870739 0.119268
v -1.281528 2.756483 -0.124212
v -1.230522 -2.870739 -0.124212
v 1.230522 2.870739 0.124212
v -1.230522 -2.870739 0.124212
v -1.230522 2.870739 -0.124212
v 1.281527 2.756483 0.124212
v 1.281528 -2.870739 0.119268
v -1.281527 -2.756483 0.124212
v 1.281527 2.870739 -0.119268
v 1.281528 -2.756483 -0.124212
v -1.281527 -2.870739 -0.119268
v -1.281528 2.870739 -0.119268
v -1.281527 -2.756483 -0.124212
v 1.230522 -2.870739 -0.124212
v -1.230522 2.870739 0.124212
v 1.230522 -2.870739 0.124212
v 1.230522 2.870739 -0.124212
v 1.281528 -2.756483 0.124212
v 1.281528 -2.870739 -0.119268
v -1.281528 2.756483 0.124212
v 1.281527 2.870739 0.119268
v 1.281527 2.756483 -0.124212
v -1.281527 -2.870739 0.119268
v -1.231776 -2.759293 -0.126556
v -1.231777 2.759293 -0.126556
v 1.231776 2.759293 -0.126556
v -1.231776 -2.924910 0.119390
v -1.231776 -2.924910 -0.119390
v 1.231777 -2.924910 -0.119390
v -1.305710 2.759293 0.119390
v -1.305710 2.759293 -0.119390
v -1.305709 -2.759293 -0.119390
v -1.231777 2.924910 -0.119390
v -1.231777 2.924910 0.119390
v 1.231776 2.924910 0.119390
v -1.231777 2.759293 0.126556
v -1.231776 -2.759293 0.126556
v 1.231777 -2.759293 0.126556
v 1.305710 -2.759293 0.119390
v 1.305710 -2.759293 -0.119390
v 1.305709 2.759293 -0.119390
v 1.231777 -2.759293 -0.126556
v 1.231777 -2.924910 0.119390
v -1.305709 -2.759293 0.119390
v 1.231776 2.924910 -0.119390
v 1.231776 2.759293 0.126556
v 1.305709 2.759293 0.119390
v -1.277439 2.861581 0.121807
v -1.277439 2.815152 -0.123815
v -1.256713 -2.861581 -0.123815
v 1.256713 2.861581 0.123815
v -1.256713 -2.861581 0.123815
v -1.256713 2.861581 -0.123815
v 1.277439 2.815152 0.123815
v 1.277439 -2.861581 0.121807
v -1.277439 -2.815152 0.123815
v 1.277439 2.861581 -0.121807
v 1.277439 -2.815152 -0.123815
v -1.277439 -2.861581 -0.121807
v -1.284243 2.876823 -0.116083
v -1.284243 -2.682866 -0.124475
v 1.197659 -2.876823 -0.124475
v -1.197659 2.876823 0.124475
v 1.197659 -2.876823 0.124475
v 1.197659 2.876823 -0.124475
v 1.284243 -2.682866 0.124475
v 1.284243 -2.876823 -0.116083
v -1.284243 2.682866 0.124475
v 1.284243 2.876823 0.116083
v 1.284243 2.682866 -0.124475
v -1.284243 -2.876823 0.116083
v -1.284243 2.876823 0.116083
v -1.284243 2.682866 -0.124475
v -1.197659 -2.876823 -0.124475
v 1.197658 2.876823 0.124475
v -1.197659 -2.876823 0.124475
v -1.197659 2.876823 -0.124475
v 1.284243 2.682866 0.124475
v 1.284243 -2.876823 0.116083
v -1.284243 -2.682866 0.124475
v 1.284243 2.876823 -0.116083
v 1.284243 -2.682866 -0.124475
v -1.284243 -2.876823 -0.116083
v -1.277439 2.861581 -0.121807
v -1.277439 -2.815152 -0.123815
v 1.256713 -2.861581 -0.123815
v -1.256713 2.861581 0.123815
v 1.256713 -2.861581 0.123815
v 1.256713 2.861581 -0.123815
v 1.277439 -2.815152 0.123815
v 1.277439 -2.861581 -0.121807
v -1.277439 2.815152 0.123815
v 1.277439 2.861581 0.121807
v 1.277439 2.815152 -0.123815
v -1.277439 -2.861581 0.121807
v -1.230984 -2.822531 -0.125642
v -1.232466 -2.683926 -0.127091
v -1.260006 -2.757518 -0.125642
v -1.198132 -2.760837 -0.127091
v -1.232466 2.683926 -0.127091
v -1.230984 2.822530 -0.125642
v -1.260007 2.757518 -0.125642
v -1.198132 2.760837 -0.127091
v 1.232466 2.683926 -0.127091
v 1.230984 2.822531 -0.125642
v 1.198132 2.760837 -0.127091
v 1.260006 2.757518 -0.125642
v -1.230984 -2.903800 0.122126
v -1.232466 -2.937283 0.116129
v -1.260006 -2.903800 0.119313
v -1.198132 -2.937283 0.119456
v -1.232466 -2.937283 -0.116129
v -1.230984 -2.903800 -0.122126
v -1.260006 -2.903800 -0.119313
v -1.198132 -2.937283 -0.119456
v 1.232466 -2.937283 -0.116129
v 1.230984 -2.903800 -0.122126
v 1.198132 -2.937283 -0.119456
v 1.260007 -2.903800 -0.119313
v -1.296286 2.757518 0.122126
v -1.311233 2.760837 0.116129
v -1.296286 2.822531 0.119313
v -1.311233 2.683926 0.119456
v -1.311233 2.760837 -0.116129
v -1.296286 2.757518 -0.122126
v -1.296286 2.822531 -0.119313
v -1.311233 2.683926 -0.119456
v -1.311233 -2.760837 -0.116129
v -1.296286 -2.757518 -0.122126
v -1.311233 -2.683926 -0.119456
v -1.296286 -2.822531 -0.119313
v -1.230984 2.903800 -0.122126
v -1.232466 2.937283 -0.116129
v -1.260007 2.903800 -0.119313
v -1.198132 2.937283 -0.119456
v -1.232466 2.937283 0.116129
v -1.230984 2.903800 0.122126
v -1.260007 2.903800 0.119313
v -1.198132 2.937283 0.119456
v 1.232466 2.937283 0.116129
v 1.230984 2.903800 0.122126
v 1.198132 2.937283 0.119456
v 1.260006 2.903800 0.119313
v -1.230984 2.822531 0.125642
v -1.232466 2.683926 0.127091
v -1.260007 2.757518 0.125642
v -1.198132 2.760837 0.127091
v -1.232466 -2.683926 0.127091
v -1.230984 -2.822530 0.125642
v -1.260006 -2.757518 0.125642
v -1.198132 -2.760837 0.127091
v 1.232466 -2.683926 0.127091
v 1.230984 -2.822531 0.125642
v 1.198132 -2.760837 0.127091
v 1.260007 -2.757518 0.125642
v 1.296286 -2.757518 0.122126
v 1.311233 -2.760837 0.116129
v 1.296286 -2.822530 0.119313
v 1.311233 -2.683926 0.119456
v 1.311233 -2.760837 -0.116129
v 1.296286 -2.757518 -0.122126
v 1.296286 -2.822531 -0.119313
v 1.311233 -2.683926 -0.119456
v 1.311233 2.760837 -0.116129
v 1.296286 2.757518 -0.122126
v 1.311233 2.683926 -0.119456
v 1.296286 2.822530 -0.119313
v 1.230984 -2.822531 -0.125642
v 1.232466 -2.683926 -0.127091
v 1.198132 -2.760837 -0.127091
v 1.260007 -2.757518 -0.125642
v 1.230984 -2.903800 0.122126
v 1.232466 -2.937283 0.116129
v 1.198132 -2.937283 0.119456
v 1.260007 -2.903800 0.119313
v -1.296286 -2.757518 0.122126
v -1.311233 -2.760837 0.116129
v -1.311233 -2.683926 0.119456
v -1.296286 -2.822531 0.119313
v 1.230984 2.903800 -0.122126
v 1.232466 2.937283 -0.116129
v 1.198132 2.937283 -0.119456
v 1.260006 2.903800 -0.119313
v 1.230984 2.822531 0.125642
v 1.232466 2.683926 0.127091
v 1.198132 2.760837 0.127091
v 1.260006 2.757518 0.125642
v 1.296286 2.757518 0.122126
v 1.311233 2.760837 0.116129
v 1.311233 2.683926 0.119456
v 1.296286 2.822531 0.119313
v 1.300568 2.825785 0.116098
v 1.317542 2.684590 0.116157
v 1.300568 2.683221 0.122267
v 1.261459 2.683221 0.126057
v 1.198428 2.684591 0.127702
v 1.197817 2.825785 0.126057
v 1.261459 2.913393 -0.116098
v 1.198428 2.951416 -0.116157
v 1.197817 2.913393 -0.122267
v -1.300568 -2.825785 0.116098
v -1.317542 -2.684590 0.116157
v -1.300568 -2.683221 0.122267
v 1.261460 -2.913393 0.116098
v 1.198429 -2.951416 0.116157
v 1.197818 -2.913393 0.122267
v 1.261460 -2.683221 -0.126057
v 1.198429 -2.684591 -0.127702
v 1.197818 -2.825785 -0.126057
v 1.289030 2.818328 -0.121944
v 1.300568 2.683221 -0.122267
v 1.317542 2.684590 -0.116157
v 1.300569 -2.683221 -0.122267
v 1.289030 -2.818328 -0.121944
v 1.300569 -2.825785 -0.116098
v 1.317543 -2.684590 0.116157
v 1.300569 -2.825785 0.116098
v 1.289030 -2.818328 0.121944
v 1.258131 -2.818328 0.124939
v 1.197818 -2.825785 0.126057
v 1.198429 -2.684591 0.127702
v -1.197817 -2.825785 0.126057
v -1.258130 -2.818328 0.124939
v -1.261459 -2.683221 0.126057
v -1.198429 2.684590 0.127702
v -1.261460 2.683221 0.126057
v -1.258131 2.818328 0.124939
v 1.258130 2.887546 0.121944
v 1.197817 2.913393 0.122267
v 1.198428 2.951416 0.116157
v -1.197818 2.913393 0.122267
v -1.258131 2.887546 0.121944
v -1.261460 2.913393 0.116098
v -1.198429 2.951416 -0.116157
v -1.261460 2.913393 -0.116098
v -1.258131 2.887546 -0.121944
v -1.289030 -2.818328 -0.121944
v -1.300568 -2.683221 -0.122267
v -1.317542 -2.684590 -0.116157
v -1.300569 2.683221 -0.122267
v -1.289030 2.818328 -0.121944
v -1.300569 2.825785 -0.116098
v -1.317543 2.684590 0.116157
v -1.300569 2.825785 0.116098
v -1.289030 2.818328 0.121944
v 1.258131 -2.887546 -0.121944
v 1.197818 -2.913393 -0.122267
v 1.198429 -2.951416 -0.116157
v -1.197817 -2.913393 -0.122267
v -1.258130 -2.887546 -0.121944
v -1.261459 -2.913393 -0.116098
v -1.198428 -2.951416 0.116157
v -1.261459 -2.913393 0.116098
v -1.258130 -2.887546 0.121944
v 1.258130 2.818328 -0.124939
v 1.197817 2.825785 -0.126057
v 1.198428 2.684591 -0.127702
v -1.197818 2.825785 -0.126057
v -1.258131 2.818328 -0.124939
v -1.261460 2.683221 -0.126057
v -1.198428 -2.684590 -0.127702
v -1.261459 -2.683221 -0.126057
v -1.258130 -2.818328 -0.124939
v -1.197817 -2.825785 -0.126057
v -1.198429 2.684590 -0.127702
v 1.261459 2.683221 -0.126057
v -1.197817 -2.913393 0.122267
v -1.198428 -2.951416 -0.116157
v 1.261460 -2.913393 -0.116098
v -1.300569 2.683221 0.122267
v -1.317543 2.684590 -0.116157
v -1.300568 -2.825785 -0.116098
v -1.197818 2.913393 -0.122267
v -1.198429 2.951416 0.116157
v 1.261459 2.913393 0.116098
v -1.197818 2.825785 0.126057
v -1.198428 -2.684590 0.127702
v 1.261460 -2.683221 0.126057
v 1.300569 -2.683221 0.122267
v 1.317543 -2.684590 -0.116157
v 1.300568 2.825785 -0.116098
v 1.258131 -2.818328 -0.124939
v 1.258131 -2.887546 0.121944
v -1.289030 -2.818328 0.121944
v 1.258130 2.887546 -0.121944
v 1.258130 2.818328 0.124939
v 1.289030 2.818328 0.121944
v 0.344357 1.538236 -0.127598
v 0.344357 2.692411 -0.127598
v 0.345296 1.539783 -0.161090
v 0.345296 2.690864 -0.161090
v 1.045426 1.538236 -0.127598
v 1.045426 2.692410 -0.127598
v 1.044487 1.539783 -0.161090
v 1.044486 2.690864 -0.161090
v 0.337928 2.666123 -0.127598
v 0.343415 2.693960 -0.160296
v 0.343415 1.564124 -0.161192
v 0.360081 1.536687 -0.161192
v 1.046367 1.564124 -0.161192
v 1.046367 1.536687 -0.160296
v 1.051855 1.564524 -0.127598
v 1.029458 1.527653 -0.127598
v 0.360324 2.702994 -0.127598
v 0.337928 1.564524 -0.127598
v 1.029701 1.536687 -0.161192
v 0.360081 2.693960 -0.161192
v 1.046367 2.666523 -0.161192
v 1.046367 2.693960 -0.160296
v 1.051855 2.666123 -0.127598
v 0.360324 1.527653 -0.127598
v 1.029458 2.702994 -0.127598
v 1.029935 2.702482 -0.160309
v 0.359848 2.702482 -0.160309
v 0.359848 1.528165 -0.160309
v 1.029935 1.528165 -0.160309
v 1.051544 1.563740 -0.160309
v 1.051544 2.666907 -0.160309
v 1.029935 1.563740 -0.161470
v 0.359848 1.563740 -0.161470
v 0.359848 2.666907 -0.161470
v 0.338239 1.563740 -0.160309
v 1.029935 2.666907 -0.161470
v 0.338239 2.666907 -0.160309
v 1.261459 2.683221 0.105606
v 1.232466 2.683926 0.106640
v 1.198428 2.684591 0.107251
v 1.232466 -2.683926 0.106640
v 1.198429 -2.684591 0.107251
v -1.261459 -2.683221 0.105606
v -1.261460 2.683221 0.105606
v -1.232466 -2.683926 0.106640
v -1.198429 2.684590 0.107251
v -1.232466 2.683926 0.106640
v -1.198428 -2.684590 0.107251
v 1.261460 -2.683221 0.105606
vn 0.1688 0.0426 0.9847
vn 0.0547 0.0244 0.9982
vn 0.0962 0.0759 -0.9925
vn -0.1688 -0.0426 0.9847
vn 0.0962 -0.0759 0.9925
vn 0.0547 -0.0244 -0.9982
vn 0.0693 -0.0000 0.9976
vn -0.0000 -0.0310 0.9995
vn 0.8488 0.5288 -0.0000
vn -0.0000 0.0310 -0.9995
vn 1.0000 -0.0000 -0.0000
vn 0.1340 -0.0000 0.9910
vn -0.0277 -0.0285 -0.9992
vn -0.0343 -0.0068 -0.9994
vn 0.4634 -0.0000 -0.8862
vn -0.0307 0.0137 -0.9994
vn -0.6359 0.7718 -0.0000
vn 0.0153 0.0153 -0.9998
vn 0.0637 0.0124 -0.9979
vn -0.0420 -0.0655 0.9970
vn -0.2049 -0.2583 0.9441
vn -0.0000 -0.0080 -1.0000
vn -0.0956 -0.1349 -0.9862
vn 0.9868 -0.1620 -0.0000
vn 0.0429 -0.1212 -0.9917
vn 0.2153 -0.1459 -0.9656
vn -0.1456 0.0186 0.9892
vn -0.5208 0.0823 0.8497
vn -0.0180 -0.0000 -0.9998
vn -0.2926 0.0413 -0.9553
vn 0.9868 0.1620 -0.0000
vn -0.2640 -0.0186 -0.9644
vn -0.3192 -0.0938 -0.9430
vn -0.0420 0.0655 -0.9970
vn -0.2049 0.2583 -0.9441
vn -0.0000 -0.2273 0.9738
vn -0.0956 0.1349 0.9862
vn 0.0429 0.1212 0.9917
vn 0.2153 0.1459 0.9656
vn -0.0277 0.0285 0.9992
vn -0.0343 0.0068 0.9994
vn 0.9966 -0.0825 -0.0000
vn -0.0307 -0.0137 0.9994
vn -0.0000 -0.0159 -0.9999
vn 0.0153 -0.0153 0.9998
vn 0.0637 -0.0124 0.9979
vn 0.1456 -0.0186 0.9892
vn 0.5208 -0.0823 0.8497
vn -0.4634 -0.0000 -0.8862
vn 0.2926 -0.0413 -0.9553
vn -0.0356 -0.0000 -0.9994
vn 0.2640 0.0186 -0.9644
vn 0.3192 0.0938 -0.9430
vn 0.0146 -0.0304 -0.9994
vn 0.0172 -0.0077 -0.9998
vn 0.0680 -0.0065 -0.9977
vn 0.0207 -0.0614 0.9979
vn 0.0938 -0.2359 0.9672
vn 0.3995 -0.2534 0.8810
vn -0.1364 -0.0092 0.9906
vn -0.4791 -0.0379 0.8769
vn -0.5340 -0.1677 0.8287
vn 0.0207 0.0614 -0.9979
vn 0.0938 0.2359 -0.9672
vn 0.3995 0.2534 -0.8810
vn 0.0146 0.0304 0.9994
vn 0.0172 0.0077 0.9998
vn 0.0680 0.0065 0.9977
vn 0.1364 0.0092 0.9906
vn 0.4791 0.0379 0.8769
vn 0.5340 0.1677 0.8287
vn 0.5208 0.0823 0.8497
vn -0.9868 -0.1620 -0.0000
vn 0.9525 -0.3047 -0.0000
vn -1.0000 -0.0000 -0.0000
vn -0.0000 0.1168 -0.9932
vn 0.2640 0.0186 0.9644
vn 0.0343 0.0068 0.9994
vn -0.2548 -0.0000 0.9670
vn 0.0180 -0.0000 -0.9998
vn -0.8488 0.5288 -0.0000
vn 0.6359 0.7718 -0.0000
vn 0.0153 0.0153 0.9998
vn 0.2049 0.2583 -0.9441
vn -0.0000 0.0159 -0.9999
vn 0.9525 0.3047 -0.0000
vn -0.0000 -0.0080 1.0000
vn -0.2548 -0.0000 -0.9670
vn 0.0429 0.1212 -0.9917
vn -0.5208 -0.0823 0.8497
vn 0.6359 -0.7718 -0.0000
vn 0.0693 -0.0000 -0.9976
vn -0.0000 1.0000 -0.0000
vn -0.0000 -0.0603 -0.9982
vn 0.2548 -0.0000 0.9670
vn -0.2640 -0.0186 0.9644
vn 0.2049 -0.2583 0.9441
vn 0.0356 -0.0000 -0.9994
vn -0.9525 -0.3047 -0.0000
vn -0.9966 -0.0825 -0.0000
vn -0.0000 -0.0159 0.9999
vn 0.0429 -0.1212 0.9917
vn 0.0343 -0.0068 -0.9994
vn -0.0000 0.0603 -0.9982
vn -0.0000 0.0080 1.0000
vn -0.0000 -0.1168 -0.9932
vn 0.0153 -0.0153 -0.9998
vn 0.2926 0.0413 -0.9553
vn 0.1456 0.0186 -0.9892
vn 0.1688 0.0426 -0.9847
vn 0.1364 0.0092 -0.9906
vn 0.4791 0.0379 -0.8769
vn 0.2640 -0.0186 -0.9644
vn 0.1364 -0.0092 -0.9906
vn -0.1340 -0.0000 0.9910
vn 0.3192 -0.0938 -0.9430
vn 0.1688 -0.0426 -0.9847
vn 0.1456 -0.0186 -0.9892
vn 0.5340 -0.1677 -0.8287
vn 0.5208 -0.0823 -0.8497
vn -0.0000 -0.0000 -1.0000
vn 0.4791 -0.0379 0.8769
vn 0.9966 0.0825 -0.0000
vn 0.5340 -0.1677 0.8287
vn -0.1340 -0.0000 -0.9910
vn 0.2548 -0.0000 -0.9670
vn 0.1688 -0.0426 0.9847
vn 0.3192 -0.0938 0.9430
vn 0.2926 -0.0413 0.9553
vn 0.0307 -0.0137 0.9994
vn 0.0277 -0.0285 0.9992
vn 0.0547 -0.0244 0.9982
vn 0.0146 -0.0304 0.9994
vn 0.0172 -0.0077 0.9998
vn -0.0153 -0.0153 0.9998
vn -0.0146 -0.0304 0.9994
vn -0.0000 -0.0603 0.9982
vn -0.0637 -0.0124 0.9979
vn -0.0547 -0.0244 0.9982
vn -0.0277 -0.0285 0.9992
vn -0.0680 -0.0065 0.9977
vn -0.0343 -0.0068 0.9994
vn -0.0172 0.0077 0.9998
vn -0.4634 -0.0000 0.8862
vn -0.0680 0.0065 0.9977
vn -0.9525 0.3047 -0.0000
vn -0.0000 -0.1168 0.9932
vn -0.0547 0.0244 0.9982
vn -0.0637 0.0124 0.9979
vn -0.0307 0.0137 0.9994
vn 0.0956 0.1348 0.9862
vn 0.0420 0.0655 0.9970
vn 0.0962 0.0759 0.9925
vn 0.0207 0.0614 0.9979
vn 0.0938 0.2359 0.9672
vn -0.0429 0.1212 0.9917
vn -0.0207 0.0614 0.9979
vn -0.0693 -0.0000 -0.9976
vn -0.2153 0.1459 0.9656
vn -0.0962 0.0759 0.9925
vn -0.0420 0.0655 0.9970
vn 0.8488 -0.5288 -0.0000
vn -0.3995 0.2534 0.8810
vn -0.2049 0.2583 0.9441
vn -0.0938 0.2359 -0.9672
vn -0.0000 0.2273 -0.9738
vn -0.3995 0.2534 -0.8810
vn -0.0693 -0.0000 0.9976
vn -0.0962 0.0759 -0.9925
vn -0.2152 0.1459 -0.9656
vn -0.0956 0.1348 -0.9862
vn -0.2926 -0.0413 -0.9553
vn -0.1456 -0.0186 -0.9892
vn -0.1688 -0.0426 -0.9847
vn -0.1364 -0.0092 -0.9906
vn -0.4791 -0.0379 -0.8769
vn -0.2640 0.0186 -0.9644
vn -0.1364 0.0092 -0.9906
vn -0.8488 -0.5288 -0.0000
vn -0.3192 0.0938 -0.9430
vn -0.1688 0.0426 -0.9847
vn -0.1456 0.0186 -0.9892
vn -0.5340 0.1677 -0.8287
vn -0.5208 0.0823 -0.8497
vn -0.4791 0.0379 0.8769
vn -0.0000 0.2273 0.9738
vn -0.0000 -1.0000 -0.0000
vn -0.5340 0.1677 0.8287
vn -0.0000 0.0603 0.9982
vn -0.0000 0.1168 0.9932
vn -0.1688 0.0426 0.9847
vn -0.3192 0.0938 0.9430
vn -0.2926 0.0413 0.9553
vn 0.0956 -0.1348 -0.9862
vn 0.0420 -0.0655 -0.9970
vn 0.0962 -0.0759 -0.9925
vn 0.0207 -0.0614 -0.9979
vn 0.0938 -0.2359 -0.9672
vn -0.0429 -0.1212 -0.9917
vn -0.0207 -0.0614 -0.9979
vn -0.2153 -0.1459 -0.9656
vn -0.0962 -0.0759 -0.9925
vn -0.0420 -0.0655 -0.9970
vn -0.3995 -0.2534 -0.8810
vn -0.2049 -0.2583 -0.9441
vn -0.0938 -0.2359 0.9672
vn -0.3835 0.9235 -0.0000
vn -0.3995 -0.2534 0.8810
vn -0.0000 -0.0310 -0.9995
vn -0.0000 0.0159 0.9999
vn -0.0962 -0.0759 0.9925
vn -0.2152 -0.1459 0.9656
vn -0.0956 -0.1348 0.9862
vn 0.0307 0.0137 -0.9994
vn 0.0277 0.0285 -0.9992
vn 0.0547 0.0244 -0.9982
vn 0.0146 0.0304 -0.9994
vn 0.0172 0.0077 -0.9998
vn -0.0153 0.0153 -0.9998
vn -0.0146 0.0304 -0.9994
vn -0.0000 0.0310 0.9995
vn -0.0637 0.0124 -0.9979
vn -0.0547 0.0244 -0.9982
vn -0.0277 0.0285 -0.9992
vn -0.0680 0.0065 -0.9977
vn -0.0343 0.0068 -0.9994
vn -0.0172 -0.0077 -0.9998
vn -0.9966 0.0825 -0.0000
vn -0.0680 -0.0065 -0.9977
vn 0.1340 -0.0000 -0.9910
vn -0.6359 -0.7718 -0.0000
vn -0.0547 -0.0244 -0.9982
vn -0.0637 -0.0124 -0.9979
vn -0.0307 -0.0137 -0.9994
vn -0.0146 -0.0304 -0.9994
vn -0.0153 -0.0153 -0.9998
vn -0.9868 0.1620 -0.0000
vn -0.0172 0.0077 -0.9998
vn 0.3835 -0.9235 -0.0000
vn 0.0343 0.0068 -0.9994
vn 0.0680 0.0065 -0.9977
vn -0.0207 -0.0614 0.9979
vn -0.0429 -0.1212 0.9917
vn 0.3835 0.9235 -0.0000
vn -0.0938 -0.2359 -0.9672
vn -0.3835 -0.9235 -0.0000
vn 0.2049 -0.2583 -0.9441
vn 0.3995 -0.2534 -0.8810
vn -0.1364 0.0092 0.9906
vn -0.2640 0.0186 0.9644
vn -0.4791 0.0379 -0.8769
vn -0.0000 0.0080 -1.0000
vn -0.5208 -0.0823 -0.8497
vn -0.5340 -0.1677 -0.8287
vn -0.0207 0.0614 -0.9979
vn -0.0429 0.1212 -0.9917
vn -0.0938 0.2359 0.9672
vn -0.0000 -0.2273 -0.9738
vn 0.2049 0.2583 0.9441
vn 0.3995 0.2534 0.8810
vn -0.0146 0.0304 0.9994
vn -0.0153 0.0153 0.9998
vn -0.0172 -0.0077 0.9998
vn 0.4634 -0.0000 0.8862
vn 0.0343 -0.0068 0.9994
vn 0.0680 -0.0065 0.9977
vn 0.1364 -0.0092 0.9906
vn 0.2640 -0.0186 0.9644
vn 0.4791 -0.0379 -0.8769
vn 0.5208 0.0823 -0.8497
vn 0.5340 0.1677 -0.8287
vn 0.0277 -0.0285 -0.9992
vn 0.0307 -0.0137 -0.9994
vn 0.0637 -0.0124 -0.9979
vn 0.0420 -0.0655 0.9970
vn 0.0956 -0.1348 0.9862
vn 0.2152 -0.1459 0.9656
vn -0.1456 -0.0186 0.9892
vn -0.2926 -0.0413 0.9553
vn -0.3192 -0.0938 0.9430
vn 0.0420 0.0655 -0.9970
vn 0.0956 0.1348 -0.9862
vn 0.2152 0.1459 -0.9656
vn 0.0277 0.0285 0.9992
vn 0.0307 0.0137 0.9994
vn 0.0637 0.0124 0.9979
vn 0.1456 0.0186 0.9892
vn 0.2926 0.0413 0.9553
vn 0.3192 0.0938 0.9430
vn 0.0003 0.0128 -0.9999
vn -0.0003 -0.0102 -0.9999
vn -0.9770 0.2126 0.0170
vn -0.0000 0.9999 -0.0157
vn 0.9770 0.2126 0.0170
vn -0.1360 0.0005 -0.9907
vn 0.5078 0.8611 0.0247
vn -0.5008 0.8559 -0.1287
vn 0.0008 0.0831 -0.9965
vn -0.0210 0.0002 -0.9998
vn -0.5799 -0.8045 -0.1284
vn -0.9622 -0.2559 -0.0932
vn 0.1690 0.0005 -0.9856
vn 0.0168 -0.0002 -0.9999
vn 0.5078 -0.8611 0.0247
vn 0.0009 -0.1036 -0.9946
vn 0.9736 -0.2102 -0.0889
vn 1.0000 -0.0000 -0.0095
vn -1.0000 -0.0000 -0.0095
vn -0.0000 -0.9999 -0.0157
vn -0.0243 0.9997 -0.0000
vn -0.0000 -0.0000 1.0000
vn 0.0243 0.9997 -0.0000
vn 0.0195 0.9998 -0.0000
vn 0.0243 -0.9997 -0.0000
vn 0.0195 -0.9998 -0.0000
vn -0.0195 -0.9998 -0.0000
vn -0.0195 0.9998 -0.0000
vn -0.0243 -0.9997 -0.0000
vt 0.871094 0.746094
vt 0.875000 0.746094
vt 0.875000 0.750000
vt 0.871094 0.750000
vt 0.621094 0.996094
vt 0.625000 0.996094
vt 0.625000 1.000000
vt 0.621094 1.000000
vt 0.621094 0.246094
vt 0.625000 0.246094
vt 0.625000 0.250000
vt 0.621094 0.250000
vt 0.371094 0.746094
vt 0.375000 0.746094
vt 0.375000 0.750000
vt 0.371094 0.750000
vt 0.621094 0.746094
vt 0.625000 0.746094
vt 0.625000 0.750000
vt 0.621094 0.750000
vt 0.621094 0.496094
vt 0.625000 0.496094
vt 0.625000 0.500000
vt 0.621094 0.500000
vt 0.625000 0.761719
vt 0.625000 0.988281
vt 0.621094 0.988281
vt 0.621094 0.761719
vt 0.386719 0.750000
vt 0.613281 0.750000
vt 0.613281 0.753906
vt 0.386719 0.753906
vt 0.625000 0.011719
vt 0.625000 0.238281
vt 0.621094 0.238281
vt 0.621094 0.011719
vt 0.386719 0.253906
vt 0.386719 0.250000
vt 0.613281 0.250000
vt 0.613281 0.253906
vt 0.636719 0.511719
vt 0.863281 0.511719
vt 0.863281 0.738281
vt 0.636719 0.738281
vt 0.863281 0.746094
vt 0.863281 0.750000
vt 0.636719 0.750000
vt 0.636719 0.746094
vt 0.378906 0.496094
vt 0.382812 0.496094
vt 0.382812 0.500000
vt 0.378906 0.500000
vt 0.378906 0.488281
vt 0.382812 0.488281
vt 0.382812 0.492188
vt 0.378906 0.492188
vt 0.863281 0.507812
vt 0.636719 0.507812
vt 0.378906 0.253906
vt 0.382812 0.253906
vt 0.382812 0.257812
vt 0.378906 0.257812
vt 0.382812 0.238281
vt 0.378906 0.238281
vt 0.378906 0.011719
vt 0.382812 0.011719
vt 0.617188 0.253906
vt 0.617188 0.257812
vt 0.613281 0.257812
vt 0.621094 0.253906
vt 0.625000 0.253906
vt 0.625000 0.257812
vt 0.621094 0.257812
vt 0.378906 0.746094
vt 0.382812 0.746094
vt 0.382812 0.750000
vt 0.378906 0.750000
vt 0.378906 0.738281
vt 0.382812 0.738281
vt 0.382812 0.742188
vt 0.378906 0.742188
vt 0.613281 0.492188
vt 0.386719 0.492188
vt 0.386719 0.488281
vt 0.613281 0.488281
vt 0.378906 0.503906
vt 0.382812 0.503906
vt 0.382812 0.507812
vt 0.378906 0.507812
vt 0.632812 0.511719
vt 0.632812 0.738281
vt 0.628906 0.738281
vt 0.628906 0.511719
vt 0.613281 0.503906
vt 0.617188 0.503906
vt 0.617188 0.507812
vt 0.613281 0.507812
vt 0.621094 0.503906
vt 0.625000 0.503906
vt 0.625000 0.507812
vt 0.621094 0.507812
vt 0.128906 0.746094
vt 0.132812 0.746094
vt 0.132812 0.750000
vt 0.128906 0.750000
vt 0.128906 0.738281
vt 0.132812 0.738281
vt 0.132812 0.742188
vt 0.128906 0.742188
vt 0.382812 0.261719
vt 0.386719 0.261719
vt 0.128906 0.503906
vt 0.132812 0.503906
vt 0.132812 0.507812
vt 0.128906 0.507812
vt 0.871094 0.738281
vt 0.867188 0.738281
vt 0.867188 0.511719
vt 0.871094 0.511719
vt 0.363281 0.503906
vt 0.367188 0.503906
vt 0.367188 0.507812
vt 0.363281 0.507812
vt 0.371094 0.503906
vt 0.375000 0.503906
vt 0.375000 0.507812
vt 0.371094 0.507812
vt 0.378906 0.246094
vt 0.382812 0.246094
vt 0.382812 0.250000
vt 0.378906 0.250000
vt 0.382812 0.242188
vt 0.378906 0.242188
vt 0.613281 0.742188
vt 0.386719 0.742188
vt 0.386719 0.738281
vt 0.613281 0.738281
vt 0.378906 0.003906
vt 0.382812 0.003906
vt 0.382812 0.007812
vt 0.378906 0.007812
vt 0.613281 0.003906
vt 0.617188 0.003906
vt 0.617188 0.007812
vt 0.613281 0.007812
vt 0.621094 0.003906
vt 0.625000 0.003906
vt 0.625000 0.007812
vt 0.621094 0.007812
vt 0.378906 0.996094
vt 0.382812 0.996094
vt 0.382812 1.000000
vt 0.378906 1.000000
vt 0.378906 0.988281
vt 0.382812 0.988281
vt 0.382812 0.992188
vt 0.378906 0.992188
vt 0.378906 0.753906
vt 0.382812 0.753906
vt 0.382812 0.757812
vt 0.378906 0.757812
vt 0.613281 0.496094
vt 0.386719 0.496094
vt 0.617188 0.753906
vt 0.617188 0.757812
vt 0.613281 0.757812
vt 0.621094 0.753906
vt 0.625000 0.753906
vt 0.625000 0.757812
vt 0.621094 0.757812
vt 0.628906 0.746094
vt 0.632812 0.746094
vt 0.632812 0.750000
vt 0.628906 0.750000
vt 0.632812 0.742188
vt 0.628906 0.742188
vt 0.363281 0.511719
vt 0.136719 0.511719
vt 0.136719 0.507812
vt 0.628906 0.503906
vt 0.632812 0.503906
vt 0.632812 0.507812
vt 0.628906 0.507812
vt 0.378906 0.261719
vt 0.863281 0.503906
vt 0.867188 0.503906
vt 0.867188 0.507812
vt 0.871094 0.503906
vt 0.875000 0.503906
vt 0.875000 0.507812
vt 0.871094 0.507812
vt 0.617188 0.496094
vt 0.617188 0.500000
vt 0.613281 0.500000
vt 0.617188 0.488281
vt 0.617188 0.492188
vt 0.621094 0.488281
vt 0.625000 0.488281
vt 0.625000 0.492188
vt 0.621094 0.492188
vt 0.613281 0.746094
vt 0.617188 0.746094
vt 0.617188 0.750000
vt 0.617188 0.738281
vt 0.617188 0.742188
vt 0.621094 0.738281
vt 0.625000 0.738281
vt 0.625000 0.742188
vt 0.621094 0.742188
vt 0.363281 0.746094
vt 0.367188 0.746094
vt 0.367188 0.750000
vt 0.363281 0.750000
vt 0.363281 0.738281
vt 0.367188 0.738281
vt 0.367188 0.742188
vt 0.363281 0.742188
vt 0.371094 0.738281
vt 0.375000 0.738281
vt 0.375000 0.742188
vt 0.371094 0.742188
vt 0.613281 0.246094
vt 0.617188 0.246094
vt 0.617188 0.250000
vt 0.613281 0.238281
vt 0.617188 0.238281
vt 0.617188 0.242188
vt 0.613281 0.242188
vt 0.625000 0.242188
vt 0.621094 0.242188
vt 0.613281 0.996094
vt 0.617188 0.996094
vt 0.617188 1.000000
vt 0.613281 1.000000
vt 0.613281 0.988281
vt 0.617188 0.988281
vt 0.617188 0.992188
vt 0.613281 0.992188
vt 0.625000 0.992188
vt 0.621094 0.992188
vt 0.867188 0.746094
vt 0.867188 0.750000
vt 0.867188 0.742188
vt 0.863281 0.742188
vt 0.875000 0.738281
vt 0.875000 0.742188
vt 0.871094 0.742188
vt 0.367188 0.511719
vt 0.371094 0.511719
vt 0.625000 0.511719
vt 0.136719 0.738281
vt 0.386719 0.242188
vt 0.386719 0.246094
vt 0.136719 0.746094
vt 0.136719 0.742188
vt 0.613281 0.261719
vt 0.617188 0.261719
vt 0.375000 0.238281
vt 0.375000 0.011719
vt 0.617188 0.011719
vt 0.386719 0.257812
vt 0.875000 0.511719
vt 0.613281 0.761719
vt 0.386719 0.761719
vt 0.386719 0.757812
vt 0.136719 0.503906
vt 0.617188 0.511719
vt 0.621094 0.511719
vt 0.625000 0.261719
vt 0.621094 0.261719
vt 0.386719 0.238281
vt 0.386719 0.011719
vt 0.613281 0.011719
vt 0.386719 0.503906
vt 0.386719 0.500000
vt 0.636719 0.742188
vt 0.375000 0.511719
vt 0.386719 0.988281
vt 0.386719 0.992188
vt 0.386719 0.507812
vt 0.867188 0.500000
vt 0.871094 0.500000
vt 0.875000 0.500000
vt 0.863281 0.500000
vt 0.636719 0.503906
vt 0.632812 0.500000
vt 0.636719 0.500000
vt 0.136719 0.750000
vt 0.628906 0.500000
vt 0.363281 0.500000
vt 0.136719 0.500000
vt 0.617188 0.761719
vt 0.386719 0.746094
vt 0.375000 0.753906
vt 0.375000 0.757812
vt 0.378906 0.761719
vt 0.375000 0.761719
vt 0.382812 0.761719
vt 0.375000 0.988281
vt 0.375000 0.992188
vt 0.125000 0.738281
vt 0.125000 0.511719
vt 0.128906 0.511719
vt 0.375000 0.996094
vt 0.375000 1.000000
vt 0.617188 0.000000
vt 0.621094 0.000000
vt 0.625000 0.000000
vt 0.613281 0.000000
vt 0.386719 0.003906
vt 0.386719 0.007812
vt 0.382812 0.000000
vt 0.386719 0.000000
vt 0.375000 0.488281
vt 0.375000 0.261719
vt 0.375000 0.003906
vt 0.375000 0.007812
vt 0.375000 0.000000
vt 0.378906 0.000000
vt 0.375000 0.242188
vt 0.375000 0.246094
vt 0.375000 0.250000
vt 0.367188 0.500000
vt 0.371094 0.500000
vt 0.375000 0.500000
vt 0.132812 0.500000
vt 0.378906 0.511719
vt 0.125000 0.503906
vt 0.125000 0.507812
vt 0.125000 0.500000
vt 0.128906 0.500000
vt 0.132812 0.511719
vt 0.386719 0.511719
vt 0.613281 0.511719
vt 0.125000 0.742188
vt 0.125000 0.746094
vt 0.125000 0.750000
vt 0.382812 0.511719
vt 0.386719 0.996094
vt 0.386719 1.000000
vt 0.375000 0.253906
vt 0.375000 0.257812
vt 0.375000 0.492188
vt 0.375000 0.496094
s 0
usemtl Material
f 296/1/1 102/2/1 7/3/1 63/4/1
f 295/5/2 63/6/2 7/7/2 60/8/2
f 294/9/3 66/10/3 5/11/3 98/12/3
f 293/13/4 104/14/4 4/15/4 65/16/4
f 292/17/5 64/18/5 3/19/5 97/20/5
f 291/21/6 67/22/6 1/23/6 95/24/6
f 75/25/7 87/26/7 204/27/7 287/28/7
f 85/29/8 73/30/8 229/31/8 231/32/8
f 78/33/9 90/34/9 207/35/9 284/36/9
f 267/37/10 86/38/10 74/39/10 265/40/10
f 289/41/11 221/42/11 202/43/11 225/44/11
f 203/45/12 87/46/12 75/47/12 288/48/12
f 272/49/13 105/50/13 11/51/13 59/52/13
f 271/53/14 106/54/14 33/55/14 107/56/14
f 175/57/15 221/42/15 289/41/15 172/58/15
f 268/59/16 110/60/16 34/61/16 111/62/16
f 142/63/17 244/64/17 242/65/17 145/66/17
f 265/40/18 114/67/18 35/68/18 115/69/18
f 264/70/19 103/71/19 31/72/19 116/73/19
f 263/74/20 117/75/20 13/76/20 61/77/20
f 262/78/21 118/79/21 36/80/21 119/81/21
f 179/82/22 108/83/22 270/84/22 217/85/22
f 259/86/23 122/87/23 37/88/23 123/89/23
f 169/90/24 166/91/24 226/92/24 224/93/24
f 256/94/25 126/95/25 38/96/25 127/97/25
f 255/98/26 100/99/26 28/100/26 128/101/26
f 254/102/27 129/103/27 29/104/27 101/105/27
f 253/106/28 130/107/28 39/108/28 131/109/28
f 270/84/29 106/54/29 109/110/29 274/111/29
f 250/112/30 134/113/30 40/114/30 135/115/30
f 201/116/31 198/117/31 173/118/31 290/119/31
f 247/120/32 138/121/32 41/122/32 139/123/32
f 246/124/33 68/125/33 20/126/33 140/127/33
f 245/128/34 141/129/34 14/130/34 62/131/34
f 244/64/35 142/63/35 42/132/35 143/133/35
f 183/134/36 120/135/36 261/136/36 214/137/36
f 241/138/37 146/139/37 43/140/37 147/141/37
f 238/142/38 150/143/38 44/144/38 151/145/38
f 237/146/39 102/147/39 30/148/39 152/149/39
f 236/150/40 153/151/40 24/152/40 96/153/40
f 235/154/41 154/155/41 45/156/41 155/157/41
f 225/44/42 166/91/42 169/90/42 289/41/42
f 232/158/43 158/159/43 46/160/43 159/161/43
f 179/82/44 218/162/44 273/163/44 108/83/44
f 229/31/45 162/164/45 47/165/45 163/166/45
f 228/167/46 99/168/46 27/169/46 164/170/46
f 227/171/47 165/172/47 27/173/47 99/174/47
f 226/92/48 166/91/48 48/175/48 167/176/48
f 139/123/49 248/177/49 280/178/49 136/179/49
f 223/180/50 170/181/50 49/182/50 171/183/50
f 109/110/51 106/54/51 271/53/51 269/184/51
f 220/185/52 174/186/52 50/187/52 175/57/52
f 219/188/53 66/189/53 18/190/53 176/191/53
f 218/162/54 177/192/54 23/193/54 71/194/54
f 217/85/55 178/195/55 51/196/55 179/82/55
f 216/197/56 91/198/56 19/199/56 180/200/56
f 215/201/57 181/202/57 25/203/57 73/30/57
f 214/137/58 182/204/58 52/205/58 183/134/58
f 213/206/59 88/207/59 16/208/59 184/209/59
f 212/210/60 185/211/60 17/212/60 89/213/60
f 211/214/61 186/215/61 53/216/61 187/217/61
f 210/218/62 80/219/62 32/220/62 188/221/62
f 209/222/63 189/223/63 26/224/63 74/39/63
f 208/225/64 190/226/64 54/227/64 191/228/64
f 207/35/65 90/34/65 18/229/65 192/230/65
f 206/231/66 193/232/66 12/233/66 84/234/66
f 205/235/67 194/236/67 55/237/67 195/238/67
f 204/27/68 87/26/68 15/239/68 196/240/68
f 203/45/69 197/241/69 15/242/69 87/46/69
f 202/43/70 198/117/70 56/243/70 199/244/70
f 201/116/71 78/245/71 30/246/71 200/247/71
f 198/117/72 201/116/72 200/247/72 56/243/72
f 186/215/73 137/248/73 281/249/73 210/218/73
f 226/92/74 88/207/74 76/250/74 224/93/74
f 248/177/75 211/214/75 252/251/75 280/178/75
f 144/252/76 191/228/76 209/222/76 282/253/76
f 199/244/77 56/243/77 197/241/77 203/45/77
f 194/236/78 204/27/78 196/240/78 55/237/78
f 187/217/79 212/210/79 279/254/79 132/255/79
f 266/256/80 113/257/80 178/195/80 217/85/80
f 244/64/81 69/258/81 81/259/81 242/65/81
f 207/35/82 190/226/82 149/260/82 284/36/82
f 195/238/83 55/237/83 193/232/83 206/231/83
f 190/226/84 207/35/84 192/230/84 54/227/84
f 267/37/85 265/40/85 115/69/85 112/261/85
f 78/245/86 201/116/86 290/119/86 90/262/86
f 163/166/87 230/263/87 286/264/87 160/265/87
f 139/123/88 136/179/88 249/266/88 247/120/88
f 191/228/89 54/227/89 189/223/89 209/222/89
f 186/215/90 210/218/90 188/221/90 53/216/90
f 213/206/91 182/204/91 125/267/91 278/268/91
f 79/269/92 91/198/92 216/197/92 275/270/92
f 208/225/93 243/271/93 283/272/93 239/273/93
f 71/194/94 256/94/94 258/274/94 83/275/94
f 168/276/95 199/244/95 203/45/95 288/48/95
f 187/217/96 53/216/96 185/211/96 212/210/96
f 182/204/97 213/206/97 184/209/97 52/205/97
f 216/197/98 178/195/98 113/257/98 275/270/98
f 92/277/99 80/219/99 210/218/99 281/249/99
f 137/248/100 186/215/100 211/214/100 248/177/100
f 163/166/101 160/265/101 231/32/101 229/31/101
f 183/134/102 52/205/102 181/202/102 215/201/102
f 178/195/103 216/197/103 180/200/103 51/196/103
f 74/39/104 86/38/104 282/253/104 209/222/104
f 234/278/105 205/235/105 195/238/105 156/279/105
f 258/274/106 256/94/106 127/97/106 124/280/106
f 179/82/107 51/196/107 177/192/107 218/162/107
f 174/186/108 219/188/108 176/191/108 50/187/108
f 31/281/109 103/282/109 219/188/109 174/186/109
f 103/282/110 5/283/110 66/189/110 219/188/110
f 79/284/111 31/281/111 174/186/111 220/185/111
f 175/57/112 50/187/112 173/118/112 221/42/112
f 170/181/113 222/285/113 172/58/113 49/182/113
f 19/286/114 91/287/114 222/285/114 170/181/114
f 212/210/115 89/213/115 77/288/115 279/254/115
f 100/99/116 223/180/116 171/183/116 28/100/116
f 1/23/117 67/289/117 223/180/117 100/99/117
f 67/289/118 19/286/118 170/181/118 223/180/118
f 28/100/119 171/183/119 224/93/119 76/250/119
f 171/183/120 49/182/120 169/90/120 224/93/120
f 266/256/121 217/85/121 270/84/121 274/111/121
f 166/91/122 225/44/122 168/276/122 48/175/122
f 221/42/123 173/118/123 198/117/123 202/43/123
f 88/207/124 226/92/124 167/176/124 16/208/124
f 70/290/125 247/120/125 249/266/125 82/291/125
f 222/285/126 220/185/126 175/57/126 172/58/126
f 64/18/127 227/171/127 99/174/127 3/19/127
f 16/208/128 167/176/128 227/171/128 64/18/128
f 167/176/129 48/175/129 165/172/129 227/171/129
f 162/164/130 228/167/130 164/170/130 47/165/130
f 25/203/131 97/20/131 228/167/131 162/164/131
f 97/20/132 3/19/132 99/168/132 228/167/132
f 73/30/133 25/203/133 162/164/133 229/31/133
f 163/166/134 47/165/134 161/292/134 230/263/134
f 158/159/135 231/32/135 160/265/135 46/160/135
f 13/76/136 85/29/136 231/32/136 158/159/136
f 215/201/137 73/30/137 85/29/137 276/293/137
f 65/294/138 232/158/138 159/161/138 17/295/138
f 4/15/139 61/77/139 232/158/139 65/294/139
f 61/77/140 13/76/140 158/159/140 232/158/140
f 17/295/141 159/161/141 233/296/141 89/297/141
f 159/161/142 46/160/142 157/298/142 233/296/142
f 154/155/143 234/278/143 156/279/143 45/156/143
f 187/217/144 132/255/144 252/251/144 211/214/144
f 77/299/145 235/154/145 155/157/145 29/300/145
f 253/106/146 81/301/146 69/302/146 251/303/146
f 215/201/147 276/293/147 120/135/147 183/134/147
f 101/304/148 236/150/148 96/153/148 8/305/148
f 29/300/149 155/157/149 236/150/149 101/304/149
f 155/157/150 45/156/150 153/151/150 236/150/150
f 150/143/151 237/146/151 152/149/151 44/144/151
f 12/306/152 60/307/152 237/146/152 150/143/152
f 60/307/153 7/308/153 102/147/153 237/146/153
f 84/309/154 12/306/154 150/143/154 238/142/154
f 151/145/155 44/144/155 149/260/155 239/273/155
f 146/139/156 240/310/156 148/311/156 43/140/156
f 24/312/157 72/313/157 240/310/157 146/139/157
f 271/53/158 70/314/158 82/315/158 269/184/158
f 57/316/159 241/138/159 147/141/159 9/317/159
f 8/318/160 96/319/160 241/138/160 57/316/160
f 96/319/161 24/312/161 146/139/161 241/138/161
f 76/250/162 88/207/162 213/206/162 278/268/162
f 9/317/163 147/141/163 242/65/163 81/259/163
f 147/141/164 43/140/164 145/66/164 242/65/164
f 142/63/165 243/271/165 144/252/165 42/132/165
f 191/228/166 144/252/166 243/271/166 208/225/166
f 69/258/167 244/64/167 143/133/167 21/320/167
f 235/154/168 77/299/168 89/297/168 233/296/168
f 93/321/169 245/128/169 62/131/169 6/322/169
f 21/320/170 143/133/170 245/128/170 93/321/170
f 143/133/171 42/132/171 141/129/171 245/128/171
f 138/121/172 246/124/172 140/127/172 41/122/172
f 22/323/173 94/324/173 246/124/173 138/121/173
f 94/324/174 2/325/174 68/125/174 246/124/174
f 70/290/175 22/323/175 138/121/175 247/120/175
f 139/123/176 41/122/176 137/248/176 248/177/176
f 134/113/177 249/266/177 136/179/177 40/114/177
f 10/326/178 82/291/178 249/266/178 134/113/178
f 262/78/179 80/219/179 92/277/179 260/327/179
f 93/328/180 250/112/180 135/115/180 21/329/180
f 6/330/181 58/331/181 250/112/181 93/328/181
f 58/331/182 10/326/182 134/113/182 250/112/182
f 21/329/183 135/115/183 251/303/183 69/302/183
f 135/115/184 40/114/184 133/332/184 251/303/184
f 130/107/185 252/251/185 132/255/185 39/108/185
f 151/145/186 239/273/186 283/272/186 148/311/186
f 261/136/187 277/333/187 257/334/187 214/137/187
f 81/301/188 253/106/188 131/109/188 9/335/188
f 84/309/189 238/142/189 240/310/189 72/313/189
f 240/310/190 238/142/190 151/145/190 148/311/190
f 57/336/191 254/102/191 101/105/191 8/337/191
f 9/335/192 131/109/192 254/102/192 57/336/192
f 131/109/193 39/108/193 129/103/193 254/102/193
f 126/95/194 255/98/194 128/101/194 38/96/194
f 23/193/195 95/24/195 255/98/195 126/95/195
f 95/24/196 1/23/196 100/99/196 255/98/196
f 71/194/197 23/193/197 126/95/197 256/94/197
f 127/97/198 38/96/198 125/267/198 257/334/198
f 122/87/199 258/274/199 124/280/199 37/88/199
f 11/51/200 83/275/200 258/274/200 122/87/200
f 68/125/201 259/86/201 123/89/201 20/126/201
f 2/325/202 59/52/202 259/86/202 68/125/202
f 59/52/203 11/51/203 122/87/203 259/86/203
f 20/126/204 123/89/204 260/327/204 92/277/204
f 123/89/205 37/88/205 121/338/205 260/327/205
f 118/79/206 261/136/206 120/135/206 36/80/206
f 283/272/207 243/271/207 142/63/207 145/66/207
f 80/219/208 262/78/208 119/81/208 32/220/208
f 71/194/209 83/275/209 273/163/209 218/162/209
f 195/238/210 206/231/210 285/339/210 156/279/210
f 104/14/211 263/74/211 61/77/211 4/15/211
f 32/220/212 119/81/212 263/74/212 104/14/212
f 119/81/213 36/80/213 117/75/213 263/74/213
f 114/67/214 264/70/214 116/73/214 35/68/214
f 26/224/215 98/12/215 264/70/215 114/67/215
f 98/12/216 5/11/216 103/71/216 264/70/216
f 74/39/217 26/224/217 114/67/217 265/40/217
f 115/69/218 35/68/218 113/257/218 266/256/218
f 110/60/219 267/37/219 112/261/219 34/61/219
f 14/130/220 86/38/220 267/37/220 110/60/220
f 206/231/221 84/234/221 72/340/221 285/339/221
f 58/341/222 268/59/222 111/62/222 10/342/222
f 6/322/223 62/131/223 268/59/223 58/341/223
f 62/131/224 14/130/224 110/60/224 268/59/224
f 10/342/225 111/62/225 269/184/225 82/315/225
f 111/62/226 34/61/226 109/110/226 269/184/226
f 106/54/227 270/84/227 108/83/227 33/55/227
f 280/178/228 252/251/228 130/107/228 133/332/228
f 70/314/229 271/53/229 107/56/229 22/343/229
f 222/285/230 91/287/230 79/284/230 220/185/230
f 118/79/231 262/78/231 260/327/231 121/338/231
f 94/344/232 272/49/232 59/52/232 2/325/232
f 22/343/233 107/56/233 272/49/233 94/344/233
f 107/56/234 33/55/234 105/50/234 272/49/234
f 105/50/235 273/163/235 83/275/235 11/51/235
f 33/55/236 108/83/236 273/163/236 105/50/236
f 133/332/237 130/107/237 253/106/237 251/303/237
f 34/61/238 112/261/238 274/111/238 109/110/238
f 257/334/239 125/267/239 182/204/239 214/137/239
f 35/68/240 116/73/240 275/270/240 113/257/240
f 116/73/241 31/72/241 79/269/241 275/270/241
f 117/75/242 276/293/242 85/29/242 13/76/242
f 36/80/243 120/135/243 276/293/243 117/75/243
f 190/226/244 208/225/244 239/273/244 149/260/244
f 37/88/245 124/280/245 277/333/245 121/338/245
f 261/136/246 118/79/246 121/338/246 277/333/246
f 38/96/247 128/101/247 278/268/247 125/267/247
f 128/101/248 28/100/248 76/250/248 278/268/248
f 129/103/249 279/254/249 77/288/249 29/104/249
f 39/108/250 132/255/250 279/254/250 129/103/250
f 40/114/251 136/179/251 280/178/251 133/332/251
f 112/261/252 115/69/252 266/256/252 274/111/252
f 41/122/253 140/127/253 281/249/253 137/248/253
f 140/127/254 20/126/254 92/277/254 281/249/254
f 141/129/255 282/253/255 86/38/255 14/130/255
f 42/132/256 144/252/256 282/253/256 141/129/256
f 43/140/257 148/311/257 283/272/257 145/66/257
f 127/97/258 257/334/258 277/333/258 124/280/258
f 44/144/259 152/149/259 284/36/259 149/260/259
f 152/149/260 30/148/260 78/33/260 284/36/260
f 153/151/261 285/339/261 72/340/261 24/152/261
f 45/156/262 156/279/262 285/339/262 153/151/262
f 46/160/263 160/265/263 286/264/263 157/298/263
f 199/244/264 168/276/264 225/44/264 202/43/264
f 47/165/265 164/170/265 287/28/265 161/292/265
f 164/170/266 27/169/266 75/25/266 287/28/266
f 165/172/267 288/48/267 75/47/267 27/173/267
f 48/175/268 168/276/268 288/48/268 165/172/268
f 49/182/269 172/58/269 289/41/269 169/90/269
f 50/187/270 176/191/270 290/119/270 173/118/270
f 176/191/271 18/190/271 90/262/271 290/119/271
f 177/192/272 291/21/272 95/24/272 23/193/272
f 51/196/273 180/200/273 291/21/273 177/192/273
f 180/200/274 19/199/274 67/22/274 291/21/274
f 181/202/275 292/17/275 97/20/275 25/203/275
f 52/205/276 184/209/276 292/17/276 181/202/276
f 184/209/277 16/208/277 64/18/277 292/17/277
f 185/211/278 293/13/278 65/16/278 17/212/278
f 53/216/279 188/221/279 293/13/279 185/211/279
f 188/221/280 32/220/280 104/14/280 293/13/280
f 189/223/281 294/9/281 98/12/281 26/224/281
f 54/227/282 192/230/282 294/9/282 189/223/282
f 192/230/283 18/229/283 66/10/283 294/9/283
f 193/232/284 295/5/284 60/8/284 12/233/284
f 55/237/285 196/240/285 295/5/285 193/232/285
f 196/240/286 15/239/286 63/6/286 295/5/286
f 197/241/287 296/1/287 63/4/287 15/242/287
f 56/243/288 200/247/288 296/1/288 197/241/288
f 200/247/289 30/246/289 102/2/289 296/1/289
f 161/292/310 287/28/310 345/28/310 337/292/310
f 336/235/311 342/278/311 343/155/311 340/154/311 339/296/311 341/298/311 344/264/311 338/263/311 337/292/311 345/28/311 334/27/311 335/236/311
f 233/296/312 157/298/312 341/298/312 339/296/312
f 157/298/313 286/264/313 344/264/313 341/298/313
f 235/154/11 233/296/11 339/296/11 340/154/11
f 287/28/75 204/27/75 334/27/75 345/28/75
f 154/155/314 235/154/314 340/154/314 343/155/314
f 286/264/93 230/263/93 338/263/93 344/264/93
f 234/278/315 154/155/315 343/155/315 342/278/315
f 205/235/187 234/278/187 342/278/187 336/235/187
f 194/236/316 205/235/316 336/235/316 335/236/316
f 230/263/317 161/292/317 337/292/317 338/263/317
f 204/27/318 194/236/318 335/236/318 334/27/318
usemtl 
f 304/23/290 317/193/290 332/196/290 330/68/290 316/72/290
f 328/55/291 315/343/291 308/342/291 299/322/291 307/130/291 329/61/291
f 298/308/292 306/229/292 333/227/292 305/306/292
f 322/182/293 323/187/293 313/242/293 321/173/293
f 318/100/294 302/19/294 319/203/294 327/96/294
f 331/132/295 333/227/295 306/229/295 300/11/295 307/130/295
f 321/173/296 302/19/296 318/100/296 322/182/296
f 298/3/297 313/242/297 323/187/297 316/281/297 300/283/297 306/190/297
f 304/23/298 316/281/298 323/187/298 322/182/298 318/100/298
f 300/11/299 316/72/299 330/68/299 329/61/299 307/130/299
f 320/104/300 297/337/300 299/330/300 308/326/300 324/114/300
f 331/132/301 307/130/301 299/322/301 297/318/301 314/312/301
f 317/193/302 304/23/302 318/100/302 327/96/302 326/88/302 309/51/302
f 328/55/303 332/196/303 317/193/303 309/51/303 303/325/303 315/343/303
f 301/15/304 312/212/304 325/122/304 310/126/304
f 315/323/305 303/325/305 310/126/305 325/122/305 324/114/305 308/326/305
f 326/88/306 311/76/306 301/15/306 310/126/306 303/325/306 309/51/306
f 319/203/307 311/76/307 326/88/307 327/96/307
f 332/196/121 328/55/121 329/61/121 330/68/121
f 333/227/308 331/132/308 314/312/308 305/306/308
f 325/122/309 312/212/309 320/104/309 324/114/309
