# Blender 4.4.3
# www.blender.org
mtllib Large Trashcan.mtl
o Cube
v 1.000000 2.000000 1.000000
v -1.000000 2.000000 1.000000
v 1.000000 2.000000 -1.000000
v -1.000000 2.000000 -1.000000
v 0.971860 1.974182 -0.997855
v 0.997855 1.974182 -0.971860
v 0.809990 0.000000 -0.835986
v 0.835985 0.000000 -0.809990
v 0.997855 1.974182 0.971860
v 0.971860 1.974182 0.997855
v 0.835986 0.000000 0.809990
v 0.809990 0.000000 0.835985
v -0.971860 1.974182 -0.997855
v -0.997855 1.974182 -0.971860
v -0.835986 0.000000 -0.809990
v -0.809990 0.000000 -0.835985
v -0.997855 1.974182 0.971860
v -0.971860 1.974182 0.997855
v -0.809990 0.000000 0.835986
v -0.835985 0.000000 0.809990
vn -0.0000 -0.0817 0.9967
vn 0.9967 -0.0817 -0.0000
vn -0.9967 -0.0817 -0.0000
vn 0.5442 -0.6384 -0.5442
vn 0.5442 -0.6384 0.5443
vn -0.5442 -0.6384 -0.5443
vn -0.0000 -1.0000 -0.0000
vn -0.5442 -0.6384 0.5443
vn 0.7024 -0.1152 -0.7024
vn -0.7024 -0.1152 0.7024
vn 0.7024 -0.1152 0.7024
vn -0.7024 -0.1152 -0.7024
vn -0.0000 -0.0828 0.9966
vn 0.9966 -0.0828 -0.0000
vn -0.9966 -0.0828 -0.0000
vn -0.0000 -0.0828 -0.9966
vn -0.0000 -0.0817 -0.9967
vt 0.621773 0.753341
vt 0.378227 0.996230
vt 0.378227 0.753769
vt 0.621773 0.503341
vt 0.378227 0.746230
vt 0.378227 0.503769
vt 0.621773 0.003341
vt 0.378227 0.246230
vt 0.378227 0.003769
vt 0.982734 0.062207
vt 0.983017 0.062500
vt 0.982734 0.062793
vt 0.982734 0.084133
vt 0.983017 0.084426
vt 0.982734 0.084719
vt 0.982734 0.040867
vt 0.982734 0.040281
vt 0.983017 0.040574
vt 0.377961 0.000000
vt 0.378227 0.496230
vt 0.982734 0.018940
vt 0.982711 0.018647
vt 0.983017 0.018647
vt 0.961374 0.062169
vt 0.961350 0.018647
vt 0.961374 0.018978
vt 0.961374 0.084096
vt 0.961374 0.040243
vt 0.983017 0.106353
vt 0.621773 0.253341
vt 0.378227 0.253769
vt 0.621773 0.996659
vt 0.621773 0.746659
vt 0.621773 0.246659
vt 0.377961 0.750000
vt 0.961374 0.062831
vt 0.961374 0.084757
vt 0.961374 0.040904
vt 0.982734 0.106060
vt 0.621773 0.496659
s 0
usemtl Material
f 10/1/1 19/2/1 12/3/1
f 6/4/2 11/5/2 8/6/2
f 17/7/3 15/8/3 20/9/3
f 5/10/4 3/11/4 6/12/4
f 9/13/5 1/14/5 10/15/5
f 13/16/6 14/17/6 4/18/6
f 12/3/7 19/19/7 7/20/7
f 17/21/8 18/22/8 2/23/8
f 6/12/9 7/24/9 5/10/9
f 19/25/10 17/21/10 20/26/10
f 10/15/11 11/27/11 9/13/11
f 13/16/12 15/28/12 14/17/12
f 2/29/13 10/15/13 1/14/13
f 1/14/14 6/12/14 3/11/14
f 4/18/15 17/21/15 2/23/15
f 3/11/16 13/16/16 4/18/16
f 13/30/17 7/20/17 16/31/17
f 10/1/1 18/32/1 19/2/1
f 6/4/2 9/33/2 11/5/2
f 17/7/3 14/34/3 15/8/3
f 19/19/7 20/9/7 15/8/7
f 15/8/7 16/31/7 19/19/7
f 16/31/7 7/20/7 19/19/7
f 7/20/7 8/6/7 11/35/7
f 11/35/7 12/3/7 7/20/7
f 6/12/9 8/36/9 7/24/9
f 19/25/10 18/22/10 17/21/10
f 10/15/11 12/37/11 11/27/11
f 13/16/12 16/38/12 15/28/12
f 2/29/13 18/39/13 10/15/13
f 1/14/14 9/13/14 6/12/14
f 4/18/15 14/17/15 17/21/15
f 3/11/16 5/10/16 13/16/16
f 13/30/17 5/40/17 7/20/17
o Cube.001
v 1.000000 2.000000 1.000000
v -1.000000 2.000000 1.000000
v 1.000000 2.000000 -1.000000
v -1.000000 2.000000 -1.000000
v 0.665761 3.278391 0.665761
v -0.665761 3.278391 0.665761
v 0.665761 3.278391 -0.665761
v -0.665761 3.278391 -0.665761
v 1.000000 3.039971 1.000000
v -1.000000 3.039971 1.000000
v 1.000000 3.039971 -1.000000
v -1.000000 3.039971 -1.000000
v 0.532014 4.209521 0.532014
v -0.532014 4.209521 0.532014
v 0.532014 4.209521 -0.532014
v -0.532014 4.209521 -0.532014
v 0.665761 4.123221 0.665761
v -0.665761 4.123221 0.665761
v 0.665761 4.123221 -0.665761
v -0.665761 4.123221 -0.665761
v -0.507204 3.371644 0.665761
v 0.507204 3.371644 0.665761
v 0.507204 4.010302 0.665761
v -0.507204 4.010302 0.665761
v -0.507204 3.371644 -0.665761
v -0.507204 4.010302 -0.665761
v 0.507204 3.371644 -0.665761
v 0.507204 4.010302 -0.665761
v -0.665761 3.371644 0.507204
v -0.665761 4.010302 0.507204
v -0.665761 3.371644 -0.507204
v -0.665761 4.010302 -0.507204
v 0.665761 3.371644 0.507204
v 0.665761 3.371644 -0.507204
v 0.665761 4.010302 -0.507204
v 0.665761 4.010302 0.507204
v -0.507204 3.371644 0.507204
v -0.507204 3.371644 -0.507204
v -0.507204 3.371644 0.311870
v -0.507204 4.010302 -0.311870
v -0.507204 4.010302 0.507204
v -0.507204 4.010302 -0.507204
v 0.507204 3.371644 0.507204
v 0.507204 3.371644 -0.507204
v 0.507204 3.371644 -0.311870
v 0.507204 4.010302 0.311870
v 0.507204 4.010302 0.507204
v 0.507204 4.010302 -0.507204
v -0.640678 3.004016 0.640678
v 0.640678 3.004016 0.640678
v -0.640678 3.004016 -0.640678
v 0.640678 3.004016 -0.640678
v -0.640678 3.004016 0.393940
v 0.640678 3.004016 -0.393940
v -0.640678 0.083181 0.640678
v 0.640678 0.083181 0.640678
v -0.640678 0.083181 -0.640678
v 0.640678 0.083181 -0.640678
v -0.640678 0.083181 0.393940
v 0.640678 0.083181 -0.393940
vn -0.0000 -0.0000 -1.0000
vn -1.0000 -0.0000 -0.0000
vn 1.0000 -0.0000 -0.0000
vn -0.0000 -0.0000 1.0000
vn -0.0000 0.8141 0.5807
vn 0.5807 0.8141 -0.0000
vn -0.5807 0.8141 -0.0000
vn -0.0000 0.8141 -0.5807
vn -0.0000 1.0000 -0.0000
vn -0.0000 0.8403 0.5422
vn 0.5422 0.8403 -0.0000
vn -0.5422 0.8403 -0.0000
vn -0.0000 0.8403 -0.5422
vn -0.0000 -0.3413 -0.9400
vn -0.9400 -0.3413 -0.0000
vn -0.0000 -1.0000 -0.0000
vn 0.9400 -0.3413 -0.0000
vn -0.0000 -0.3413 0.9400
vt 0.156845 0.798942
vt -0.000000 0.496944
vt 0.156845 0.496944
vt -0.000000 1.000000
vt 0.000000 0.798942
vt 0.017001 0.976058
vt 0.127193 1.000000
vt 0.113154 0.822884
vt 0.127193 0.798942
vt 0.845537 0.798636
vt 0.688964 0.496638
vt 0.845537 0.496638
vt 0.930505 0.301998
vt 0.773933 0.000000
vt 0.930505 0.000000
vt 0.313690 0.798942
vt 0.313690 0.496944
vt 0.437436 0.547108
vt 0.386966 0.798636
vt 0.386966 0.496638
vt 0.638494 0.547108
vt 0.688964 0.496638
vt 0.437436 0.748166
vt 0.688964 0.798636
vt 0.638494 0.748166
vt 0.567829 0.979498
vt 0.407162 0.818831
vt 0.567829 0.818831
vt 0.972951 0.496638
vt 0.958887 0.673754
vt 0.958887 0.520580
vt 0.862567 0.673754
vt 0.845537 0.697696
vt 0.845537 0.496638
vt 0.862567 0.874812
vt 0.845537 0.898754
vt 0.972951 0.898754
vt 0.958887 0.721638
vt 0.972951 0.697696
vt 0.254386 0.798942
vt 0.240347 0.976058
vt 0.240347 0.822884
vt 0.144194 0.976058
vt 0.386966 0.999694
vt 0.386966 0.798636
vt 0.588024 0.798636
vt 0.407162 0.979498
vt 0.588024 0.999694
vt 0.797875 0.494471
vt 0.821816 0.398318
vt 0.821816 0.494471
vt 0.337631 0.842592
vt 0.313690 0.746439
vt 0.337631 0.746439
vt 0.337631 0.842592
vt 0.361573 0.746439
vt 0.361573 0.842592
vt 0.385515 0.842592
vt 0.385515 0.746439
vt 0.313690 0.650119
vt 0.337631 0.496944
vt 0.337631 0.650119
vt 0.361573 0.496944
vt 0.173329 0.000000
vt 0.000000 0.056434
vt 0.020154 0.000000
vt 0.407121 0.000000
vt 0.543193 0.056893
vt 0.386966 0.056893
vt 0.789083 0.975752
vt 0.765141 0.822577
vt 0.789083 0.822577
vt 0.588024 0.975752
vt 0.611966 0.822577
vt 0.611966 0.975752
vt 0.765141 0.975752
vt 0.735645 0.822577
vt 0.641462 0.975752
vt 0.337631 0.650119
vt 0.313690 0.746439
vt 0.337631 0.746439
vt 0.361573 0.650119
vt 0.361573 0.746439
vt 0.385515 0.746439
vt 0.361573 0.650119
vt 0.385515 0.650119
vt 0.797875 0.398318
vt 0.821816 0.301998
vt 0.821816 0.398318
vt 0.361573 0.496944
vt 0.385515 0.496944
vt 0.385515 0.526440
vt 0.797875 0.455172
vt 0.773933 0.455172
vt 0.773933 0.425677
vt 0.611966 0.798636
vt 0.765141 0.999694
vt 0.386966 0.496638
vt 0.736676 0.056893
vt 0.580450 0.496638
vt 0.580450 0.056893
vt 0.560295 0.000000
vt 0.530800 0.000000
vt 0.753778 0.000000
vt 0.724283 0.000000
vt 0.366812 0.000000
vt 0.193483 0.056434
vt 0.213638 0.000000
vt 0.600604 0.000000
vt 0.000000 0.496944
vt 0.580450 0.056893
vt 0.543193 0.496638
vt 0.773933 0.056893
vt 0.736676 0.496638
vt 0.386966 0.056434
vt 0.193483 0.496944
vt -0.000000 0.798942
vt 0.113154 0.976058
vt 0.017001 0.822884
vt 0.688964 0.798636
vt 0.773933 0.301998
vt 0.862567 0.520580
vt 0.958887 0.874812
vt 0.862567 0.721638
vt 0.254386 1.000000
vt 0.144194 0.822884
vt 0.797875 0.398318
vt 0.313690 0.842592
vt 0.337631 0.746439
vt 0.313690 0.496944
vt 0.361573 0.650119
vt 0.588024 0.822577
vt 0.337631 0.746439
vt 0.337631 0.650119
vt 0.361573 0.746439
vt 0.797875 0.301998
vt 0.385515 0.650119
vt 0.361573 0.650119
vt 0.797875 0.301998
vt 0.765141 0.798636
vt 0.611966 0.999694
vt 0.580450 0.496638
vt 0.773933 0.496638
vt 0.386966 0.496944
s 0
usemtl Material.001
f 24/41/18 31/42/18 23/43/18
f 38/44/19 40/45/19 50/46/19
f 26/47/19 51/48/19 28/49/19
f 23/50/20 29/51/20 21/52/20
f 22/53/19 32/54/19 24/55/19
f 21/56/21 30/43/21 22/57/21
f 25/58/22 30/59/22 29/60/22
f 27/61/23 29/60/23 31/62/23
f 26/63/24 32/64/24 30/59/24
f 28/65/25 31/62/25 32/64/25
f 36/66/26 33/67/26 35/68/26
f 26/69/21 42/70/21 41/71/21
f 43/72/21 37/73/21 38/74/21
f 46/75/18 40/76/18 39/73/18
f 28/77/18 47/78/18 27/79/18
f 25/80/20 54/81/20 53/82/20
f 39/47/20 37/49/20 55/83/20
f 33/67/27 38/84/27 37/85/27
f 35/68/28 37/85/28 39/86/28
f 34/87/29 40/88/29 38/84/29
f 36/66/30 39/86/30 40/88/30
f 45/89/20 62/90/20 58/91/20
f 41/92/20 61/93/20 44/94/20
f 42/95/19 67/96/19 63/97/19
f 47/98/19 68/96/19 48/99/19
f 41/100/26 63/101/26 57/102/26
f 47/103/26 58/102/26 64/101/26
f 63/104/31 69/105/31 57/106/31
f 63/107/32 74/108/32 70/109/32
f 48/110/33 62/111/33 46/112/33
f 43/113/33 61/114/33 67/115/33
f 68/116/33 60/117/33 62/111/33
f 61/114/33 66/118/33 67/115/33
f 56/119/18 63/120/18 67/100/18
f 49/121/18 61/122/18 57/123/18
f 51/124/21 62/125/21 52/126/21
f 54/127/21 68/128/21 64/129/21
f 49/130/26 57/131/26 59/132/26
f 54/133/26 64/134/26 65/135/26
f 60/117/33 61/114/33 50/136/33
f 66/118/33 68/116/33 55/137/33
f 74/108/19 76/138/19 70/109/19
f 73/139/20 77/140/20 71/141/20
f 64/142/32 74/108/32 65/143/32
f 57/144/34 73/139/34 59/145/34
f 58/146/35 72/147/35 64/148/35
f 58/149/34 73/139/34 71/141/34
f 70/147/18 75/150/18 69/105/18
f 72/151/19 80/152/19 74/108/19
f 69/153/20 79/154/20 73/139/20
f 71/155/21 78/156/21 72/147/21
f 24/41/18 32/157/18 31/42/18
f 50/46/19 49/158/19 26/47/19
f 40/45/19 28/49/19 52/159/19
f 28/49/19 51/48/19 52/159/19
f 50/46/19 26/47/19 38/44/19
f 40/45/19 52/159/19 50/46/19
f 26/47/19 49/158/19 51/48/19
f 23/50/20 31/160/20 29/51/20
f 22/53/19 30/161/19 32/54/19
f 21/56/21 29/41/21 30/43/21
f 25/58/22 26/63/22 30/59/22
f 27/61/23 25/58/23 29/60/23
f 26/63/24 28/65/24 32/64/24
f 28/65/25 27/61/25 31/62/25
f 36/66/26 34/87/26 33/67/26
f 26/69/21 25/79/21 42/70/21
f 43/72/21 42/70/21 25/79/21
f 38/74/21 26/69/21 44/162/21
f 26/69/21 41/71/21 44/162/21
f 43/72/21 25/79/21 37/73/21
f 38/74/21 44/162/21 43/72/21
f 46/75/18 45/163/18 28/77/18
f 39/73/18 27/79/18 48/164/18
f 27/79/18 47/78/18 48/164/18
f 46/75/18 28/77/18 40/76/18
f 39/73/18 48/164/18 46/75/18
f 28/77/18 45/163/18 47/78/18
f 25/80/20 27/165/20 54/81/20
f 55/83/20 54/81/20 27/165/20
f 37/49/20 25/80/20 56/166/20
f 25/80/20 53/82/20 56/166/20
f 55/83/20 27/165/20 39/47/20
f 37/49/20 56/166/20 55/83/20
f 33/67/27 34/87/27 38/84/27
f 35/68/28 33/67/28 37/85/28
f 34/87/29 36/66/29 40/88/29
f 36/66/30 35/68/30 39/86/30
f 45/89/20 46/167/20 62/90/20
f 41/92/20 57/168/20 61/93/20
f 42/95/19 43/169/19 67/96/19
f 47/98/19 64/97/19 68/96/19
f 41/100/26 42/170/26 63/101/26
f 47/103/26 45/171/26 58/102/26
f 63/104/31 70/147/31 69/105/31
f 63/107/32 65/143/32 74/108/32
f 48/110/33 68/116/33 62/111/33
f 43/113/33 44/172/33 61/114/33
f 68/116/33 66/118/33 60/117/33
f 61/114/33 60/117/33 66/118/33
f 56/119/18 53/173/18 63/120/18
f 49/121/18 50/174/18 61/122/18
f 51/124/21 58/175/21 62/125/21
f 54/127/21 55/176/21 68/128/21
f 59/132/26 58/177/26 51/178/26
f 51/178/26 49/130/26 59/132/26
f 65/135/26 63/161/26 53/179/26
f 53/179/26 54/133/26 65/135/26
f 50/136/33 52/180/33 60/117/33
f 52/180/33 62/111/33 60/117/33
f 55/137/33 56/181/33 66/118/33
f 56/181/33 67/115/33 66/118/33
f 74/108/19 80/152/19 76/138/19
f 73/139/20 79/154/20 77/140/20
f 64/142/32 72/151/32 74/108/32
f 57/144/34 69/153/34 73/139/34
f 58/146/35 71/155/35 72/147/35
f 58/149/34 59/145/34 73/139/34
f 70/147/18 76/156/18 75/150/18
f 72/151/19 78/182/19 80/152/19
f 69/153/20 75/183/20 79/154/20
f 71/155/21 77/184/21 78/156/21
