# Blender 4.3.2
# www.blender.org
mtllib pushdoor.mtl
o Solid_Push_Bar_Door
v -0.089971 1.450800 -0.778660
v -0.089971 1.604575 -0.778660
v -0.089971 1.604575 -0.872227
v -0.089971 1.450800 -0.872227
v 0.089971 1.604575 -0.872227
v 0.089971 1.450800 -0.872227
v 0.089971 1.450800 0.791169
v 0.089971 1.604575 0.791169
v 0.089971 1.604575 0.872227
v 0.089971 1.450800 0.872227
v -0.089971 1.604575 0.872227
v -0.089971 1.450800 0.872227
v -0.089971 -1.604575 0.817141
v 0.089971 -1.604574 0.791169
v 0.089971 -1.604575 0.872227
v -0.089971 -1.604575 0.872227
v -0.089971 1.604575 0.817141
v 0.089971 1.604575 0.686957
v -0.089971 1.604575 0.660985
v -0.089971 1.604575 0.719683
v 0.089971 1.604575 0.719683
v -0.089971 1.604575 0.762055
v 0.089971 1.604575 0.762055
v -0.089971 -1.604575 0.660985
v 0.089971 -1.604574 0.686957
v 0.089971 -1.604575 0.719683
v -0.089971 -1.604575 0.719683
v 0.089971 -1.604575 0.762055
v -0.089971 -1.604575 0.762055
v 0.089971 0.160429 0.762055
v 0.089971 0.160429 0.817141
v 0.116890 0.160429 0.817141
v 0.116890 0.160429 0.762055
v 0.089971 -0.160429 0.719683
v 0.089971 -0.160429 0.660985
v 0.116890 -0.160429 0.660985
v 0.116890 -0.160429 0.719683
v -0.089971 1.450800 0.817141
v -0.089971 1.450800 0.762055
v -0.089971 1.450800 0.719683
v 0.089971 1.450800 -0.197459
v 0.089971 1.604575 -0.197459
v 0.089971 1.450800 0.686957
v -0.089971 -1.604575 -0.197459
v 0.089971 -1.604575 -0.197459
v -0.089971 1.604575 -0.197459
v -0.089971 1.450800 0.660985
v 0.089971 -0.160429 0.817141
v 0.089971 -0.160429 0.762055
v 0.116890 -0.160429 0.762055
v 0.116890 -0.160429 0.817141
v 0.089971 -1.447839 0.762055
v 0.089971 -1.447839 0.791169
v 0.089971 0.088900 0.660985
v 0.089971 0.160429 0.660985
v 0.116890 0.160429 0.660985
v 0.116890 0.088900 0.660985
v -0.089971 -1.447839 0.872227
v -0.089971 -0.160429 0.872227
v -0.089971 -0.160429 0.817141
v -0.089971 -1.447839 0.817141
v -0.089971 0.088900 0.872227
v -0.089971 0.160429 0.872227
v -0.089971 0.160429 0.817141
v -0.089971 0.088900 0.817141
v -0.089971 -1.447839 0.719683
v -0.089971 -0.160429 0.719683
v -0.089971 -0.160429 0.660985
v -0.089971 -1.447839 0.660985
v -0.089971 0.088900 0.719683
v -0.089971 0.160429 0.719683
v -0.089971 0.160429 0.660985
v -0.089971 0.088900 0.660985
v 0.089971 -1.447839 -0.197459
v 0.089971 -0.160429 -0.197459
v 0.089971 -1.447839 0.686957
v 0.089971 0.088900 -0.197459
v 0.089971 0.160429 -0.197459
v -0.089971 -1.447839 0.762055
v -0.089971 -0.160429 0.762055
v -0.089971 0.088900 0.762055
v -0.089971 0.160429 0.762055
v 0.116890 1.450800 0.791169
v 0.116890 1.604575 0.791169
v 0.089971 1.450800 0.762055
v 0.116890 1.450800 0.762055
v 0.089971 -1.447839 0.719683
v 0.089971 0.088900 0.817141
v 0.089971 0.088900 0.872227
v 0.116890 0.088900 0.872227
v 0.116890 0.088900 0.817141
v 0.089971 -1.447839 0.872227
v 0.089971 -0.160429 0.872227
v 0.089971 0.160429 0.872227
v -0.089971 -1.447839 -0.872227
v -0.089971 -0.160429 -0.872227
v 0.089971 -0.160429 -0.872227
v 0.089971 -1.447839 -0.872227
v -0.089971 0.088900 -0.872227
v -0.089971 0.160429 -0.872227
v 0.089971 0.160429 -0.872227
v 0.089971 0.088900 -0.872227
v -0.089971 -1.447839 -0.778660
v -0.089971 -0.160429 -0.778660
v -0.089971 0.088900 -0.778660
v -0.089971 0.160429 -0.778660
v -0.089971 -0.088900 -0.778660
v -0.089971 -0.088900 -0.872227
v 0.089971 -0.088900 -0.872227
v 0.089971 -0.088900 0.817141
v 0.089971 -0.088900 0.872227
v 0.116890 -0.088900 0.817141
v -0.089971 -0.088900 0.872227
v 0.116890 -0.088900 0.872227
v 0.089971 1.450800 0.719683
v 0.116890 1.450800 0.686957
v 0.116890 1.450800 0.719683
v 0.116890 0.088900 -0.197459
v 0.089971 0.160429 0.719683
v 0.116890 0.160429 0.719683
v -0.089971 -0.088900 0.817141
v -0.089971 -0.088900 0.762055
v -0.136867 0.088900 0.660985
v -0.136867 0.088900 0.719683
v -0.089971 -0.088900 0.719683
v -0.136867 -0.088900 0.817141
v -0.136867 -0.088900 0.762055
v 0.089971 -0.088900 -0.197459
v 0.089971 -0.088900 0.660985
v 0.089971 -0.088900 -0.778660
v 0.116890 -0.088900 -0.778660
v 0.116890 -0.088900 -0.197459
v -0.089971 -0.088900 0.660985
v -0.136867 -0.088900 0.719683
v 0.116890 1.604575 0.686957
v 0.116890 -1.447839 0.719683
v 0.116890 -1.447839 0.686957
v 0.089971 0.088900 -0.778660
v 0.089971 -0.160429 -0.778660
v -0.089971 -0.088900 -0.197459
v -0.089971 0.088900 -0.197459
v -0.089971 -0.160429 -0.197459
v -0.089971 0.160429 -0.197459
v -0.089971 -1.447839 -0.197459
v 0.089971 0.160429 -0.778660
v 0.089971 -1.447839 -0.778660
v 0.089971 1.604575 -0.778660
v -0.089971 -1.604575 -0.872227
v 0.089971 -1.604575 -0.872227
v 0.089971 -1.604575 -0.778660
v -0.089971 -1.604575 -0.778660
v 0.089971 1.450800 -0.778660
v -0.089971 1.450800 -0.197459
v 0.116890 1.604575 0.762055
v 0.116890 -1.447839 0.762055
v 0.116890 -0.088900 0.660985
v 0.116890 -1.604574 0.686957
v 0.149368 -1.447839 0.686957
v 0.149368 -1.604574 0.686957
v 0.149368 1.450800 0.719683
v 0.149368 1.450800 0.762055
v 0.141124 -0.160429 0.660985
v 0.141124 -0.160429 0.719683
v 0.116890 -1.604575 0.719683
v 0.149368 -1.604575 0.719683
v 0.149368 1.450800 0.791169
v 0.141124 0.160429 0.762055
v 0.141124 0.160429 0.719683
v 0.141124 0.088900 0.872227
v 0.172685 0.088900 0.817141
v 0.149368 1.604575 0.791169
v 0.141124 -0.160429 0.762055
v 0.172685 -0.088900 0.817141
v 0.141124 -0.088900 0.872227
v 0.149368 1.604575 0.686957
v 0.149368 1.450800 0.686957
v 0.141124 0.160429 0.817141
v 0.116890 1.604575 0.719683
v 0.149368 1.604575 0.762055
v 0.149368 1.604575 0.719683
v 0.141124 -0.160429 0.817141
v 0.116890 -1.604575 0.762055
v 0.116890 -1.604574 0.791169
v 0.116890 -1.447839 0.791169
v 0.116890 0.088900 -0.778660
v 0.172685 0.088900 0.762055
v 0.172685 0.088900 0.719683
v 0.172685 0.088900 0.660985
v 0.141124 0.160429 0.660985
v 0.172685 -0.088900 0.660985
v 0.172685 -0.088900 0.719683
v 0.172685 -0.088900 0.762055
v 0.228641 -0.088900 0.592943
v 0.228641 0.088900 0.592943
v 0.149368 -1.447839 0.719683
v 0.149368 -1.447839 0.762055
v 0.149368 -1.604575 0.762055
v 0.149368 -1.447839 0.791169
v 0.149368 -1.604574 0.791169
v 0.172685 -0.088900 -0.722581
v 0.172685 -0.088900 -0.197459
v 0.172685 0.088900 -0.197459
v 0.172685 0.088900 -0.722581
v 0.228641 -0.088900 -0.172978
v 0.228641 0.088900 -0.172978
v -0.136867 0.045049 0.756401
v -0.136867 0.045049 0.724875
v -0.224368 0.045049 0.724875
v -0.224368 0.045049 0.756401
v -0.136867 0.034140 0.698599
v -0.224368 0.034140 0.698599
v -0.136867 -0.034140 0.698599
v -0.224368 -0.034140 0.698599
v -0.136867 0.088900 0.817141
v -0.136867 -0.088900 0.660985
v -0.136867 0.088900 0.762055
v -0.136867 0.034140 0.779989
v -0.136867 -0.034140 0.779989
v -0.136867 -0.045049 0.756401
v -0.136867 -0.045049 0.724875
v -0.253947 0.034140 0.698599
v -0.224368 0.034140 0.425708
v -0.253947 0.034140 0.425708
v -0.224368 -0.045049 0.756401
v -0.224368 -0.034140 0.779989
v -0.253947 -0.034140 0.779989
v -0.253947 -0.045049 0.756401
v -0.224368 -0.045049 0.724875
v -0.253947 -0.045049 0.724875
v -0.224368 0.034140 0.779989
v -0.253947 0.034140 0.779989
v -0.253947 0.045049 0.756401
v -0.253947 0.045049 0.724875
v -0.253947 -0.034140 0.698599
v -0.224368 -0.034140 0.425708
v -0.253947 -0.034140 0.425708
vn -1.0000 -0.0000 -0.0000
vn -0.0000 -0.0000 -1.0000
vn 1.0000 -0.0000 -0.0000
vn -0.0000 -0.0000 1.0000
vn -0.0000 -1.0000 -0.0000
vn -0.0000 1.0000 -0.0000
vn 0.9149 0.4037 -0.0000
vn 0.8677 -0.0000 0.4971
vn 0.9149 -0.4037 -0.0000
vn 0.7724 -0.0000 0.6352
vn 0.7089 -0.0000 -0.7053
vn 0.4008 -0.0000 -0.9162
vn -0.0000 0.9236 -0.3834
vn -0.0000 -0.9076 0.4198
vn -0.0000 0.9076 0.4198
vn -0.0000 -0.9236 -0.3834
s 0
f 1//1 2//1 3//1
f 1//1 3//1 4//1
f 4//2 3//2 5//2
f 4//2 5//2 6//2
f 7//3 8//3 9//3
f 7//3 9//3 10//3
f 10//4 9//4 11//4
f 10//4 11//4 12//4
f 13//5 14//5 15//5
f 13//5 15//5 16//5
f 8//6 17//6 11//6
f 8//6 11//6 9//6
f 18//6 19//6 20//6
f 18//6 20//6 21//6
f 21//6 20//6 22//6
f 21//6 22//6 23//6
f 24//5 25//5 26//5
f 24//5 26//5 27//5
f 27//5 26//5 28//5
f 27//5 28//5 29//5
f 30//6 31//6 32//6
f 30//6 32//6 33//6
f 34//5 35//5 36//5
f 34//5 36//5 37//5
f 38//1 17//1 22//1
f 38//1 22//1 39//1
f 39//1 22//1 20//1
f 39//1 20//1 40//1
f 41//3 42//3 18//3
f 41//3 18//3 43//3
f 44//5 45//5 25//5
f 44//5 25//5 24//5
f 42//6 46//6 19//6
f 42//6 19//6 18//6
f 40//1 20//1 19//1
f 40//1 19//1 47//1
f 12//1 11//1 17//1
f 12//1 17//1 38//1
f 23//6 22//6 17//6
f 23//6 17//6 8//6
f 29//5 28//5 14//5
f 29//5 14//5 13//5
f 48//5 49//5 50//5
f 48//5 50//5 51//5
f 52//3 49//3 48//3
f 52//3 48//3 53//3
f 54//2 55//2 56//2
f 54//2 56//2 57//2
f 58//1 59//1 60//1
f 58//1 60//1 61//1
f 62//1 63//1 64//1
f 62//1 64//1 65//1
f 66//1 67//1 68//1
f 66//1 68//1 69//1
f 70//1 71//1 72//1
f 70//1 72//1 73//1
f 74//3 75//3 35//3
f 74//3 35//3 76//3
f 77//3 78//3 55//3
f 77//3 55//3 54//3
f 79//1 80//1 67//1
f 79//1 67//1 66//1
f 81//1 82//1 71//1
f 81//1 71//1 70//1
f 61//1 60//1 80//1
f 61//1 80//1 79//1
f 65//1 64//1 82//1
f 65//1 82//1 81//1
f 8//4 7//4 83//4
f 8//4 83//4 84//4
f 85//4 30//4 33//4
f 85//4 33//4 86//4
f 76//3 35//3 34//3
f 76//3 34//3 87//3
f 88//6 89//6 90//6
f 88//6 90//6 91//6
f 92//4 93//4 59//4
f 92//4 59//4 58//4
f 89//4 94//4 63//4
f 89//4 63//4 62//4
f 53//3 48//3 93//3
f 53//3 93//3 92//3
f 88//3 31//3 94//3
f 88//3 94//3 89//3
f 95//2 96//2 97//2
f 95//2 97//2 98//2
f 99//2 100//2 101//2
f 99//2 101//2 102//2
f 103//1 104//1 96//1
f 103//1 96//1 95//1
f 105//1 106//1 100//1
f 105//1 100//1 99//1
f 104//1 107//1 108//1
f 104//1 108//1 96//1
f 107//1 105//1 99//1
f 107//1 99//1 108//1
f 96//2 108//2 109//2
f 96//2 109//2 97//2
f 108//2 99//2 102//2
f 108//2 102//2 109//2
f 48//3 110//3 111//3
f 48//3 111//3 93//3
f 110//4 48//4 51//4
f 110//4 51//4 112//4
f 93//4 111//4 113//4
f 93//4 113//4 59//4
f 111//4 89//4 62//4
f 111//4 62//4 113//4
f 111//5 110//5 112//5
f 111//5 112//5 114//5
f 115//5 43//5 116//5
f 115//5 116//5 117//5
f 77//6 54//6 57//6
f 77//6 57//6 118//6
f 119//2 115//2 117//2
f 119//2 117//2 120//2
f 60//1 121//1 122//1
f 60//1 122//1 80//1
f 70//6 73//6 123//6
f 70//6 123//6 124//6
f 80//1 122//1 125//1
f 80//1 125//1 67//1
f 122//5 121//5 126//5
f 122//5 126//5 127//5
f 75//3 128//3 129//3
f 75//3 129//3 35//3
f 128//5 130//5 131//5
f 128//5 131//5 132//5
f 67//1 125//1 133//1
f 67//1 133//1 68//1
f 125//5 122//5 127//5
f 125//5 127//5 134//5
f 59//1 113//1 121//1
f 59//1 121//1 60//1
f 113//1 62//1 65//1
f 113//1 65//1 121//1
f 43//2 18//2 135//2
f 43//2 135//2 116//2
f 76//6 87//6 136//6
f 76//6 136//6 137//6
f 109//3 102//3 138//3
f 109//3 138//3 130//3
f 97//3 109//3 130//3
f 97//3 130//3 139//3
f 140//1 141//1 105//1
f 140//1 105//1 107//1
f 142//1 140//1 107//1
f 142//1 107//1 104//1
f 141//1 143//1 106//1
f 141//1 106//1 105//1
f 144//1 142//1 104//1
f 144//1 104//1 103//1
f 102//3 101//3 145//3
f 102//3 145//3 138//3
f 98//3 97//3 139//3
f 98//3 139//3 146//3
f 5//6 3//6 2//6
f 5//6 2//6 147//6
f 148//5 149//5 150//5
f 148//5 150//5 151//5
f 6//3 5//3 147//3
f 6//3 147//3 152//3
f 153//1 46//1 2//1
f 153//1 2//1 1//1
f 143//1 153//1 1//1
f 143//1 1//1 106//1
f 101//3 6//3 152//3
f 101//3 152//3 145//3
f 30//3 85//3 7//3
f 30//3 7//3 31//3
f 63//1 12//1 38//1
f 63//1 38//1 64//1
f 71//1 40//1 47//1
f 71//1 47//1 72//1
f 78//3 41//3 43//3
f 78//3 43//3 55//3
f 82//1 39//1 40//1
f 82//1 40//1 71//1
f 64//1 38//1 39//1
f 64//1 39//1 82//1
f 23//6 8//6 84//6
f 23//6 84//6 154//6
f 55//3 43//3 115//3
f 55//3 115//3 119//3
f 94//4 10//4 12//4
f 94//4 12//4 63//4
f 31//3 7//3 10//3
f 31//3 10//3 94//3
f 100//2 4//2 6//2
f 100//2 6//2 101//2
f 106//1 1//1 4//1
f 106//1 4//1 100//1
f 149//3 98//3 146//3
f 149//3 146//3 150//3
f 44//1 144//1 103//1
f 44//1 103//1 151//1
f 151//1 103//1 95//1
f 151//1 95//1 148//1
f 148//2 95//2 98//2
f 148//2 98//2 149//2
f 14//3 53//3 92//3
f 14//3 92//3 15//3
f 15//4 92//4 58//4
f 15//4 58//4 16//4
f 49//4 52//4 155//4
f 49//4 155//4 50//4
f 35//2 129//2 156//2
f 35//2 156//2 36//2
f 13//1 61//1 79//1
f 13//1 79//1 29//1
f 29//1 79//1 66//1
f 29//1 66//1 27//1
f 45//3 74//3 76//3
f 45//3 76//3 25//3
f 27//1 66//1 69//1
f 27//1 69//1 24//1
f 16//1 58//1 61//1
f 16//1 61//1 13//1
f 87//2 34//2 37//2
f 87//2 37//2 136//2
f 157//2 137//2 158//2
f 157//2 158//2 159//2
f 86//5 117//5 160//5
f 86//5 160//5 161//5
f 37//5 36//5 162//5
f 37//5 162//5 163//5
f 164//5 157//5 159//5
f 164//5 159//5 165//5
f 136//3 37//3 50//3
f 136//3 50//3 155//3
f 83//5 86//5 161//5
f 83//5 161//5 166//5
f 120//6 33//6 167//6
f 120//6 167//6 168//6
f 91//6 90//6 169//6
f 91//6 169//6 170//6
f 84//4 83//4 166//4
f 84//4 166//4 171//4
f 50//5 37//5 163//5
f 50//5 163//5 172//5
f 114//5 112//5 173//5
f 114//5 173//5 174//5
f 116//2 135//2 175//2
f 116//2 175//2 176//2
f 33//6 32//6 177//6
f 33//6 177//6 167//6
f 178//6 154//6 179//6
f 178//6 179//6 180//6
f 51//5 50//5 172//5
f 51//5 172//5 181//5
f 120//3 117//3 86//3
f 120//3 86//3 33//3
f 32//4 91//4 170//4
f 32//4 170//4 177//4
f 135//6 178//6 180//6
f 135//6 180//6 175//6
f 112//4 51//4 181//4
f 112//4 181//4 173//4
f 26//5 25//5 157//5
f 26//5 157//5 164//5
f 55//6 119//6 120//6
f 55//6 120//6 56//6
f 14//5 28//5 182//5
f 14//5 182//5 183//5
f 53//4 14//4 183//4
f 53//4 183//4 184//4
f 28//5 26//5 164//5
f 28//5 164//5 182//5
f 52//6 53//6 184//6
f 52//6 184//6 155//6
f 130//2 138//2 185//2
f 130//2 185//2 131//2
f 18//6 21//6 178//6
f 18//6 178//6 135//6
f 89//4 111//4 114//4
f 89//4 114//4 90//4
f 25//2 76//2 137//2
f 25//2 137//2 157//2
f 21//6 23//6 154//6
f 21//6 154//6 178//6
f 7//5 85//5 86//5
f 7//5 86//5 83//5
f 31//4 88//4 91//4
f 31//4 91//4 32//4
f 176//3 175//3 180//3
f 176//3 180//3 160//3
f 160//3 180//3 179//3
f 160//3 179//3 161//3
f 161//3 179//3 171//3
f 161//3 171//3 166//3
f 186//7 167//7 177//7
f 186//7 177//7 170//7
f 187//7 168//7 167//7
f 187//7 167//7 186//7
f 188//7 189//7 168//7
f 188//7 168//7 187//7
f 173//8 170//8 169//8
f 173//8 169//8 174//8
f 162//9 190//9 191//9
f 162//9 191//9 163//9
f 190//3 188//3 187//3
f 190//3 187//3 191//3
f 163//9 191//9 192//9
f 163//9 192//9 172//9
f 191//3 187//3 186//3
f 191//3 186//3 192//3
f 188//10 190//10 193//10
f 188//10 193//10 194//10
f 172//9 192//9 173//9
f 172//9 173//9 181//9
f 192//3 186//3 170//3
f 192//3 170//3 173//3
f 159//3 158//3 195//3
f 159//3 195//3 165//3
f 165//3 195//3 196//3
f 165//3 196//3 197//3
f 197//3 196//3 198//3
f 197//3 198//3 199//3
f 56//6 120//6 168//6
f 56//6 168//6 189//6
f 117//5 116//5 176//5
f 117//5 176//5 160//5
f 154//6 84//6 171//6
f 154//6 171//6 179//6
f 90//4 114//4 174//4
f 90//4 174//4 169//4
f 184//4 183//4 199//4
f 184//4 199//4 198//4
f 132//5 131//5 200//5
f 132//5 200//5 201//5
f 137//6 136//6 195//6
f 137//6 195//6 158//6
f 118//6 57//6 188//6
f 118//6 188//6 202//6
f 136//6 155//6 196//6
f 136//6 196//6 195//6
f 155//6 184//6 198//6
f 155//6 198//6 196//6
f 183//5 182//5 197//5
f 183//5 197//5 199//5
f 57//2 56//2 189//2
f 57//2 189//2 188//2
f 36//2 156//2 190//2
f 36//2 190//2 162//2
f 131//11 185//11 203//11
f 131//11 203//11 200//11
f 182//5 164//5 165//5
f 182//5 165//5 197//5
f 185//6 118//6 202//6
f 185//6 202//6 203//6
f 156//5 132//5 201//5
f 156//5 201//5 190//5
f 200//3 203//3 202//3
f 200//3 202//3 201//3
f 150//3 146//3 74//3
f 150//3 74//3 45//3
f 24//1 69//1 144//1
f 24//1 144//1 44//1
f 145//3 152//3 41//3
f 145//3 41//3 78//3
f 72//1 47//1 153//1
f 72//1 153//1 143//1
f 47//1 19//1 46//1
f 47//1 46//1 153//1
f 69//1 68//1 142//1
f 69//1 142//1 144//1
f 73//1 72//1 143//1
f 73//1 143//1 141//1
f 68//1 133//1 140//1
f 68//1 140//1 142//1
f 133//1 73//1 141//1
f 133//1 141//1 140//1
f 129//5 128//5 132//5
f 129//5 132//5 156//5
f 139//3 130//3 128//3
f 139//3 128//3 75//3
f 138//6 77//6 118//6
f 138//6 118//6 185//6
f 138//3 145//3 78//3
f 138//3 78//3 77//3
f 146//3 139//3 75//3
f 146//3 75//3 74//3
f 147//6 2//6 46//6
f 147//6 46//6 42//6
f 151//5 150//5 45//5
f 151//5 45//5 44//5
f 152//3 147//3 42//3
f 152//3 42//3 41//3
f 204//3 205//3 194//3
f 204//3 194//3 193//3
f 190//5 201//5 204//5
f 190//5 204//5 193//5
f 201//12 202//12 205//12
f 201//12 205//12 204//12
f 202//6 188//6 194//6
f 202//6 194//6 205//6
f 206//6 207//6 208//6
f 206//6 208//6 209//6
f 207//13 210//13 211//13
f 207//13 211//13 208//13
f 210//2 212//2 213//2
f 210//2 213//2 211//2
f 121//4 65//4 214//4
f 121//4 214//4 126//4
f 73//2 133//2 215//2
f 73//2 215//2 123//2
f 81//6 70//6 124//6
f 81//6 124//6 216//6
f 65//6 81//6 216//6
f 65//6 216//6 214//6
f 133//5 125//5 134//5
f 133//5 134//5 215//5
f 212//1 210//1 123//1
f 212//1 123//1 215//1
f 217//1 218//1 126//1
f 217//1 126//1 214//1
f 218//1 219//1 127//1
f 218//1 127//1 126//1
f 206//1 217//1 214//1
f 206//1 214//1 216//1
f 219//1 220//1 134//1
f 219//1 134//1 127//1
f 207//1 206//1 216//1
f 207//1 216//1 124//1
f 220//1 212//1 215//1
f 220//1 215//1 134//1
f 210//1 207//1 124//1
f 210//1 124//1 123//1
f 221//6 211//6 222//6
f 221//6 222//6 223//6
f 224//14 225//14 226//14
f 224//14 226//14 227//14
f 228//5 224//5 227//5
f 228//5 227//5 229//5
f 217//15 206//15 209//15
f 217//15 209//15 230//15
f 218//4 217//4 230//4
f 218//4 230//4 225//4
f 212//16 220//16 228//16
f 212//16 228//16 213//16
f 220//5 219//5 224//5
f 220//5 224//5 228//5
f 219//14 218//14 225//14
f 219//14 225//14 224//14
f 226//1 231//1 232//1
f 226//1 232//1 227//1
f 227//1 232//1 233//1
f 227//1 233//1 229//1
f 229//1 233//1 221//1
f 229//1 221//1 234//1
f 208//13 211//13 221//13
f 208//13 221//13 233//13
f 209//6 208//6 233//6
f 209//6 233//6 232//6
f 230//15 209//15 232//15
f 230//15 232//15 231//15
f 225//4 230//4 231//4
f 225//4 231//4 226//4
f 213//16 228//16 229//16
f 213//16 229//16 234//16
f 222//2 235//2 236//2
f 222//2 236//2 223//2
f 211//3 213//3 235//3
f 211//3 235//3 222//3
f 234//1 221//1 223//1
f 234//1 223//1 236//1
f 213//5 234//5 236//5
f 213//5 236//5 235//5
