# Blender 4.4.3
# www.blender.org
mtllib SmallTrashcan.mtl
o Cube
v -0.700956 0.000615 0.669248
v -0.719756 0.000440 0.653327
v -0.978540 1.981368 0.719728
v -0.997390 1.981544 0.703815
v -0.719756 0.000440 -0.653327
v -0.700956 0.000615 -0.669248
v -0.981360 1.984232 -0.704297
v -0.978540 1.981368 -0.719728
v -0.997390 1.981544 -0.703815
v 0.719756 0.000440 0.653327
v 0.700956 0.000615 0.669248
v 0.978540 1.981368 0.719728
v 0.997390 1.981544 0.703815
v 0.700956 0.000615 -0.669248
v 0.719756 0.000440 -0.653327
v 0.981360 1.984232 -0.704297
v 0.997390 1.981544 -0.703815
v 0.978540 1.981368 -0.719728
vn -0.0000 -0.0255 0.9997
vn -0.9903 -0.1388 -0.0000
vn -0.0000 -0.0255 -0.9997
vn 0.9903 -0.1388 -0.0000
vn -0.0000 -1.0000 -0.0000
vn 0.6419 -0.1067 -0.7593
vn -0.6419 -0.1067 -0.7593
vn -0.6418 -0.1093 0.7591
vn 0.6418 -0.1093 0.7591
vt 0.014583 0.753086
vt 0.259925 0.752463
vt 0.259925 0.997537
vt 0.014583 0.996914
vt 0.014561 0.002940
vt 0.259947 0.002794
vt 0.259947 0.247206
vt 0.014561 0.247060
vt 0.014583 0.253086
vt 0.259925 0.252463
vt 0.259925 0.497537
vt 0.014583 0.496914
vt 0.014561 0.502940
vt 0.259947 0.502794
vt 0.259947 0.747206
vt 0.014561 0.747060
vt 0.932277 0.502940
vt 0.929970 0.747114
vt 0.927148 0.750000
vt 0.682792 0.750000
vt 0.679970 0.747114
vt 0.679970 0.502886
vt 0.682792 0.500000
vt 0.927148 0.500000
vt 0.262184 0.497674
vt 0.261931 0.247243
vt 0.014257 0.000000
vt 0.259599 0.000000
s 0
usemtl Material.002
f 11/1/1 12/2/1 3/3/1 1/4/1
f 2/5/2 4/6/2 9/7/2 5/8/2
f 6/9/3 8/10/3 18/11/3 14/12/3
f 15/13/4 17/14/4 13/15/4 10/16/4
f 15/17/5 10/18/5 11/19/5 1/20/5 2/21/5 5/22/5 6/23/5 14/24/5
f 14/12/6 18/11/6 16/25/6 17/14/6 15/13/6
f 5/8/7 9/7/7 7/26/7 8/10/7 6/9/7
f 1/27/8 3/28/8 4/6/8 2/5/8
f 10/16/9 13/15/9 12/2/9 11/1/9
o Plane
v -1.019628 1.718281 0.762586
v 1.008565 1.739476 0.752242
v 1.044358 1.768321 -0.729891
v -0.050963 1.812148 0.838350
v 0.126737 1.807764 -0.792745
v -0.067643 0.435328 0.015464
v -1.028957 1.694614 0.485794
v 0.796987 1.763004 0.750867
v 1.032623 1.777463 -0.522248
v -1.040446 1.722937 -0.597654
v 1.035956 1.791827 0.708274
v 0.260675 1.747221 -0.541525
v 1.059490 1.801099 -0.585880
v 1.067054 1.793360 0.293410
v 0.147491 1.793490 0.776255
v -1.002491 1.752550 -0.783925
v -0.930809 1.784494 0.809705
v 0.917581 1.794814 -0.806796
v 0.726119 2.053421 0.739448
v -0.002981 1.771284 0.482712
v -0.758374 1.800372 0.490728
v -0.826439 1.787156 -0.447315
v -1.019382 2.045022 -0.493001
v 0.177591 2.038725 -0.747004
v -1.018162 2.019731 -0.773185
v -1.059621 1.991026 0.695635
v 0.934278 2.047555 0.209092
v -1.087529 1.708965 0.614721
v 0.977268 1.755766 0.772679
v -0.976161 1.769289 -0.789410
v -1.047343 1.703874 -0.088031
v -0.244752 1.792601 0.782938
v 1.113933 1.805826 0.088250
v -0.082646 1.992919 -0.765863
v -1.045685 1.950308 0.073097
v -0.562816 1.789350 -0.809613
v -0.808800 1.790791 0.805920
v 0.753484 1.803192 -0.807154
v -0.472154 0.410627 0.237521
v -0.953654 2.049348 0.690940
v -1.061217 1.926404 -0.479095
v -0.905976 1.770803 -0.749586
v 0.283916 0.429805 0.011452
v 1.051855 1.789474 -0.076312
v -0.257895 1.791597 -0.768237
v -1.015232 1.767721 -0.799426
v 1.059253 1.784828 0.734432
v 0.713255 1.777489 0.479824
v 0.454106 1.792502 0.817750
v 1.061331 1.896684 0.505827
v 0.387137 1.975023 -0.766780
v -0.435964 1.768088 -0.507989
v -1.032271 1.868151 -0.772299
v -0.871975 2.033247 -0.751594
v -0.638293 2.035016 0.749186
v -0.104665 2.038465 0.748292
v -1.036266 2.031555 0.602676
v -0.959369 2.039831 0.752702
v -1.030583 2.030435 0.332084
v 0.930580 1.997378 0.771867
v 1.028540 2.051198 0.716307
v 0.384718 2.035974 0.745220
v 0.781710 1.780175 0.051424
v -0.267773 2.041222 -0.674229
v -0.513920 2.037275 -0.748879
v 0.963475 2.052872 -0.696609
v 0.855420 2.050082 -0.741738
v 1.014425 1.988683 -0.741341
v 0.990683 2.041866 0.600845
v -0.932680 2.049450 -0.697073
v -1.075651 1.973589 -0.667778
v -0.934403 2.050571 -0.228675
v 0.157439 2.040943 -0.660069
v 1.030472 2.032909 -0.087992
v 0.803732 1.768178 -0.436685
v 1.021976 2.036437 0.237817
v 0.098235 2.044501 0.672030
v 1.052540 2.027658 -0.675020
vn 0.0899 0.4981 0.8625
vn 0.0514 0.9987 0.0074
vn 0.6922 0.5806 0.4288
vn 0.1132 0.7655 -0.6333
vn 0.0067 0.2477 -0.9688
vn -0.0141 0.2427 -0.9700
vn -0.4810 0.8747 0.0591
vn 0.0196 0.9405 -0.3393
vn -0.8914 0.4495 -0.0579
vn -0.8060 0.5909 0.0341
vn -0.9939 0.1033 0.0373
vn -0.9983 0.0493 0.0311
vn -0.4483 0.5743 -0.6850
vn -0.7311 -0.1100 -0.6733
vn -0.9601 0.2734 -0.0588
vn 0.0042 0.2262 0.9741
vn 0.0073 0.9529 0.3033
vn -0.0497 0.6885 0.7235
vn -0.0051 0.8298 0.5580
vn 0.0130 0.7660 -0.6427
vn 0.0081 0.8766 0.4811
vn 0.9703 0.0989 0.2206
vn 0.4436 0.3427 -0.8281
vn 0.7686 0.5995 -0.2234
vn -0.6875 0.5996 0.4097
vn -0.0368 0.4225 0.9056
vn 0.0093 0.6347 -0.7727
vn -0.0098 0.2245 -0.9744
vn 0.0001 0.0942 -0.9955
vn -0.6219 0.7759 0.1053
vn -0.4575 0.6864 -0.5653
vn 0.5787 0.5807 -0.5726
vn 0.4686 0.8832 -0.0195
vn -0.0155 0.9991 -0.0386
vn -0.9874 0.0505 -0.1500
vn 0.0483 0.3826 0.9226
vn -0.0006 0.7651 0.6439
vn -0.0911 0.2075 0.9740
vn -0.9860 -0.1472 -0.0788
vn -0.0105 0.7660 -0.6427
vn 0.3747 0.8834 -0.2815
vn 0.2118 0.2078 -0.9550
vn -0.3781 0.9255 -0.0215
vn -0.0194 0.4363 -0.8996
vn 0.0254 0.8969 -0.4415
vn -0.2507 0.6769 0.6921
vn -0.6979 0.7118 -0.0799
vn -0.8496 0.3718 0.3742
vn 0.0058 0.6917 0.7221
vn -0.5928 0.8039 -0.0484
vn 0.9910 0.0450 0.1257
vn 0.6750 0.7373 -0.0272
vn 0.9758 0.0760 -0.2050
vn 0.9713 0.2359 -0.0296
vn -0.0076 0.9942 0.1075
vn -0.0196 0.1565 -0.9875
vn -0.9994 -0.0250 0.0226
vn -0.9276 -0.0541 -0.3696
vn -0.9522 -0.2923 0.0892
vn 0.0355 0.2224 0.9743
vn -0.9956 0.0784 -0.0503
vn -0.7627 0.0470 0.6450
vn -0.3452 0.2023 0.9165
vn 0.5898 0.7037 0.3961
vn 0.4692 -0.1840 0.8637
vn 0.8331 0.0827 0.5469
vn 0.2370 -0.0006 0.9715
vn 0.1300 0.2938 0.9470
vn -0.0003 0.0257 0.9997
vn 0.0462 0.2320 0.9716
vn 0.9969 0.0706 0.0356
vn 0.6517 0.7579 -0.0307
vn 0.0124 0.1809 -0.9834
vn 0.2878 0.1830 -0.9400
vn 0.8489 0.0895 -0.5209
vn 0.1353 0.0609 -0.9889
vn 0.9465 0.0160 -0.3224
vn 0.9835 0.1591 0.0862
vt 0.335411 0.715543
vt 0.162628 0.842033
vt 0.214291 0.596108
vt 0.838491 0.880136
vt 0.798765 0.999994
vt 0.667799 0.930310
vt 0.871614 0.408617
vt 0.865027 0.849255
vt 0.805951 0.470977
vt 0.123411 0.331194
vt 0.073224 0.721244
vt 0.084529 0.466207
vt 0.119225 0.872603
vt 0.061380 0.877545
vt 0.089193 0.823148
vt 0.688336 0.003431
vt 0.772511 0.114479
vt 0.667705 0.108178
vt 0.566713 0.840955
vt 0.312598 0.888108
vt 0.406917 0.833612
vt 1.000000 0.856564
vt 0.915974 0.877874
vt 0.909054 0.844088
vt 0.756531 0.695431
vt 0.634838 0.721856
vt 0.178729 0.876441
vt 0.480357 0.919514
vt 0.424356 0.997909
vt 0.870893 0.198540
vt 0.745161 0.281858
vt 0.225150 0.227544
vt 0.159467 0.605828
vt 0.171413 0.177937
vt 0.000446 0.252062
vt 0.500000 -0.000006
vt 0.474666 0.111244
vt 0.433421 0.012795
vt 0.000706 0.785878
vt 0.575097 0.886408
vt 0.385954 0.407083
vt 0.333426 0.546637
vt 0.339912 0.326498
vt 0.881121 0.999308
vt 0.686816 0.471897
vt 0.587965 0.488354
vt 0.650507 0.358939
vt 0.529508 0.224668
vt 0.556727 0.158107
vt 0.158802 0.124560
vt 0.121273 0.190372
vt 0.111184 0.145308
vt 0.290389 0.117773
vt 0.125385 0.748915
vt 1.001491 0.773247
vt 0.907088 0.552568
vt 0.999378 0.549712
vt 1.000617 0.468030
vt 0.584613 0.621744
vt 0.498447 0.448342
vt 0.657298 0.605960
vt 0.561630 1.000000
vt 0.405769 0.617973
vt 0.000962 0.534138
vt 0.000000 1.004302
vt 0.000120 0.875402
vt 0.209906 0.000031
vt 0.000899 0.158965
vt -0.000032 0.000001
vt 0.129063 0.000093
vt 0.906448 0.154800
vt 1.000000 -0.000002
vt 1.000051 0.068651
vt 0.932926 0.000006
vt 0.864520 0.105568
vt 0.824682 0.000000
vt 0.569853 0.005820
vt 0.951486 0.259590
vt 0.914562 0.383592
vt 0.521701 0.324780
vt 0.298356 0.992452
vt 0.058579 0.996932
vt 0.999995 0.999998
vt 0.166619 0.999999
vt 0.999999 0.161117
vt 1.000189 0.365875
s 1
usemtl Material.001
f 70/29/10 88/30/11 40/31/12
f 85/32/13 56/33/14 69/34/15
f 45/35/16 84/36/17 81/37/18
f 77/38/19 59/39/20 53/40/21
f 43/41/22 71/42/23 89/43/24
f 67/44/25 37/45/26 80/46/27
f 91/47/28 83/48/29 82/49/30
f 31/50/31 86/51/32 96/52/33
f 93/53/34 84/36/17 30/54/35
f 82/49/30 72/55/36 88/30/11
f 52/56/37 63/57/38 83/48/29
f 87/58/39 81/37/18 66/59/40
f 45/35/16 81/37/18 87/58/39
f 39/60/41 90/61/42 58/62/43
f 77/38/19 53/40/21 25/63/44
f 22/64/45 74/65/46 50/66/47
f 59/39/20 89/43/24 28/67/48
f 84/36/17 42/68/49 91/47/28
f 57/69/50 40/70/12 39/71/41
f 86/51/32 36/72/51 84/36/17
f 42/68/49 52/56/37 83/48/29
f 81/73/18 61/74/52 66/75/40
f 37/45/26 38/76/53 95/77/54
f 37/45/26 95/77/54 80/46/27
f 76/78/55 75/79/56 44/80/57
f 58/62/43 77/38/19 75/79/56
f 74/65/46 95/77/54 73/81/58
f 90/61/42 41/82/59 77/38/19
f 40/31/12 88/30/11 90/61/42
f 27/83/60 92/84/61 62/85/62
f 92/84/61 84/36/17 45/35/16
f 62/85/62 92/84/61 51/86/63
f 61/74/52 30/87/35 24/88/64
f 81/73/18 93/89/34 61/74/52
f 42/68/49 23/90/65 52/56/37
f 30/54/35 82/49/30 70/29/10
f 24/88/64 70/91/10 57/69/50
f 59/39/20 28/67/48 49/92/66
f 71/42/23 64/93/67 34/94/68
f 89/43/24 34/94/68 28/67/48
f 88/30/11 43/41/22 41/82/59
f 73/81/58 58/62/43 76/78/55
f 50/66/47 76/78/55 55/95/69
f 44/80/57 46/96/70 19/97/71
f 55/95/69 76/78/55 35/98/72
f 76/78/55 44/80/57 35/98/72
f 53/40/21 49/92/66 25/63/44
f 77/38/19 25/63/44 75/79/56
f 79/99/73 66/59/40 37/45/26
f 20/100/74 65/101/75 47/102/76
f 47/102/76 78/103/77 26/104/78
f 47/102/76 79/99/73 78/103/77
f 80/46/27 95/77/54 74/65/46
f 33/105/79 74/65/46 22/64/45
f 67/44/25 80/46/27 33/105/79
f 79/99/73 45/35/16 87/58/39
f 68/106/80 94/107/81 79/99/73
f 38/108/53 57/69/50 39/71/41
f 83/48/29 54/109/82 72/55/36
f 85/32/13 69/34/15 42/68/49
f 27/83/60 96/52/33 92/84/61
f 36/72/51 56/33/14 85/32/13
f 63/57/38 54/109/82 83/48/29
f 66/75/40 24/88/64 38/108/53
f 87/58/39 66/59/40 79/99/73
f 38/76/53 39/60/41 58/62/43
f 43/41/22 48/110/83 71/42/23
f 53/40/21 59/39/20 49/92/66
f 69/34/15 23/90/65 42/68/49
f 37/45/26 66/59/40 38/76/53
f 21/111/84 36/72/51 86/51/32
f 31/50/31 21/111/84 86/51/32
f 52/56/37 23/90/65 63/57/38
f 43/41/22 60/112/85 48/110/83
f 65/101/75 29/113/86 79/99/73
f 91/47/28 42/68/49 83/48/29
f 27/83/60 31/50/31 96/52/33
f 84/36/17 85/32/13 42/68/49
f 82/49/30 83/48/29 72/55/36
f 29/113/86 32/114/87 68/106/80
f 89/43/24 71/42/23 34/94/68
f 57/69/50 70/91/10 40/70/12
f 94/107/81 51/86/63 92/84/61
f 32/114/87 51/86/63 94/107/81
f 94/107/81 92/84/61 45/35/16
f 79/99/73 29/113/86 68/106/80
f 39/60/41 40/31/12 90/61/42
f 76/78/55 58/62/43 75/79/56
f 72/55/36 60/112/85 43/41/22
f 90/61/42 88/30/11 41/82/59
f 61/74/52 93/89/34 30/87/35
f 30/54/35 91/47/28 82/49/30
f 30/54/35 84/36/17 91/47/28
f 77/38/19 41/82/59 59/39/20
f 71/42/23 48/110/83 64/93/67
f 41/82/59 89/43/24 59/39/20
f 41/82/59 43/41/22 89/43/24
f 88/30/11 72/55/36 43/41/22
f 95/77/54 38/76/53 58/62/43
f 73/81/58 95/77/54 58/62/43
f 50/66/47 73/81/58 76/78/55
f 44/80/57 75/79/56 46/96/70
f 46/96/70 75/79/56 25/63/44
f 19/97/71 35/98/72 44/80/57
f 58/62/43 90/61/42 77/38/19
f 78/103/77 79/99/73 37/45/26
f 26/104/78 78/103/77 37/45/26
f 26/104/78 37/45/26 67/44/25
f 33/105/79 80/46/27 74/65/46
f 66/75/40 61/74/52 24/88/64
f 79/99/73 94/107/81 45/35/16
f 38/108/53 24/88/64 57/69/50
f 70/29/10 82/49/30 88/30/11
f 84/36/17 36/72/51 85/32/13
f 92/84/61 96/52/33 84/36/17
f 96/52/33 86/51/32 84/36/17
f 68/106/80 32/114/87 94/107/81
f 65/101/75 79/99/73 47/102/76
f 50/66/47 74/65/46 73/81/58
f 24/88/64 30/87/35 70/91/10
f 81/37/18 84/36/17 93/53/34
f 69/34/15 56/33/14 23/90/65
f 72/55/36 54/109/82 60/112/85
